<svg xmlns="http://www.w3.org/2000/svg" viewBox="0 0 1468 897.16"><defs><style>.cls-1,.cls-15{fill:#064963;}.cls-1,.cls-5{isolation:isolate;}.cls-1{opacity:0.09;}.cls-2{fill:#fcd343;}.cls-3{fill:#013d61;}.cls-4{fill:#90d8d4;}.cls-12,.cls-5{fill:#e69dc4;}.cls-11,.cls-5{opacity:0.76;}.cls-6{fill:#003956;}.cls-7{fill:#2cc1bd;}.cls-8{fill:#6fbcb6;}.cls-9{fill:#fb5d51;}.cls-10{fill:#13a29c;}.cls-13{fill:#eda283;}.cls-14{fill:#ffd85a;}.cls-16{fill:#fff;}</style></defs><g id="Слой_2" data-name="Слой 2"><g id="Слой_1-2" data-name="Слой 1"><g id="Layer_1" data-name="Layer 1"><path class="cls-1" d="M433.82,158.89c4.79,28.63,31.93,48.58,58.45,61.13,104.42,49.43,236.25,34.55,327-36.92,16.18-12.74,31.54-27.73,39.06-46.9C895.62,41.06,722.8,1.13,661.54,0,583.61-1.34,506.2,32.85,457.24,94c-14.28,17.84-26.52,39.64-23.81,62.33Q433.61,157.64,433.82,158.89Z"/><path class="cls-1" d="M104.86,296.59C-39.06,437.75,15.34,776.64,175.7,869.85c60.76,35.32,110.35,20.17,237.05,8.07,480.11-45.85,611,90.32,806.74-36.16,30.65-19.8,160.8-109.29,183.67-258.81,32.78-214.37-171.68-437.23-351-456.45-158.71-17-177.63,169.51-374.64,183-183.89,12.63-287.52-133.35-471.47-71C181.07,246.94,141.25,260.92,104.86,296.59Z"/><path class="cls-2" d="M173.94,761.59l.14-2.75-9.68,1.39-9.68-1.39v2.77l-51,7.28s-1,89.52,49.41,101h22.6c50.47-11.45,49.41-101,49.41-101Z"/><ellipse class="cls-3" cx="164.4" cy="768.9" rx="60.71" ry="15.88"/><path class="cls-2" d="M229.57,781.36c-13.45,0-24.4,12.57-24.4,28s11,28.12,24.4,28.12,24.52-12.57,24.52-28.12S243.13,781.36,229.57,781.36Zm-4.48,43.31c-7.35,0-13.32-6.84-13.32-15.3s6-15.31,13.32-15.31,13.31,6.84,13.31,15.31-6,15.3-13.31,15.3Z"/><circle class="cls-4" cx="145.81" cy="335.19" r="145.81"/><path class="cls-5" d="M242.7,252.25A127.77,127.77,0,0,1,18,354.83,127.79,127.79,0,1,0,242.7,252.25Z"/><polygon class="cls-3" points="145.81 216.52 156.33 340.72 157.33 352.57 145.81 351.23 55.03 340.72 145.81 330.2 135.3 340.72 145.81 216.52"/><circle class="cls-3" cx="145.8" cy="340.65" r="19.07"/><path class="cls-6" d="M1307.91,445h33.85a29.07,29.07,0,0,0,29.14-29h0v-6.07a29.1,29.1,0,0,0-29.06-29.14h-33.93a29,29,0,0,1,29,29V416A29,29,0,0,1,1307.91,445Z"/><path class="cls-3" d="M1092.9,380.78V445h215a29,29,0,0,0,29-29v-6.07A29,29,0,0,0,1308,380.78H1092.9Z"/><rect class="cls-7" x="1092.88" y="393.02" width="212.81" height="6.74"/><rect class="cls-7" x="1092.88" y="409.52" width="212.81" height="6.74"/><rect class="cls-7" x="1092.88" y="426.03" width="212.81" height="6.74"/><path class="cls-8" d="M1307.91,388.19h33.85a29.07,29.07,0,0,0,29.14-29h0v-6.07A29.1,29.1,0,0,0,1341.84,324h-33.93a29,29,0,0,1,29,29v6.21a29,29,0,0,1-29,29Z"/><path class="cls-4" d="M1092.9,324v64.21h215a29,29,0,0,0,29-29h0v-6.07A29,29,0,0,0,1308,324H1092.9Z"/><rect class="cls-7" x="1092.88" y="336.22" width="212.81" height="6.74"/><rect class="cls-7" x="1092.88" y="352.72" width="212.81" height="6.74"/><rect class="cls-7" x="1092.88" y="369.23" width="212.81" height="6.74"/><path class="cls-6" d="M1307.91,331.38h33.85a29.06,29.06,0,0,0,29.14-29v-6.09a29.1,29.1,0,0,0-29.07-29.13h-33.92a29,29,0,0,1,29,29v6.2A29,29,0,0,1,1307.91,331.38Z"/><path class="cls-3" d="M1092.9,267.18v64.2h215a29,29,0,0,0,29-29h0v-6.07A29,29,0,0,0,1308,267.18H1092.9Z"/><rect class="cls-7" x="1092.88" y="279.42" width="212.81" height="6.74"/><rect class="cls-7" x="1092.88" y="295.92" width="212.81" height="6.74"/><rect class="cls-7" x="1092.88" y="312.43" width="212.81" height="6.74"/><path class="cls-8" d="M1307.91,274.59h33.85a29.07,29.07,0,0,0,29.14-29h0v-6.07a29.1,29.1,0,0,0-29.07-29.13h-33.92a29,29,0,0,1,29,29v6.2a29,29,0,0,1-29,29Z"/><path class="cls-4" d="M1092.9,210.38v64.21h215a29,29,0,0,0,29-29h0v-6.07A29,29,0,0,0,1308,210.39H1092.9Z"/><rect class="cls-7" x="1092.88" y="222.61" width="212.81" height="6.74"/><rect class="cls-7" x="1092.88" y="239.12" width="212.81" height="6.74"/><rect class="cls-7" x="1092.88" y="255.62" width="212.81" height="6.74"/><path class="cls-9" d="M1115.34,622.05s-9.82.6-23.23-7.76,6.25-24.75,13.11-19.78a4.5,4.5,0,0,1,1.55,1.72,13.47,13.47,0,0,1,5.25,1C1120.55,600.69,1115.34,622.05,1115.34,622.05Z"/><path class="cls-10" d="M1165.85,757.67c2-1.12,35-126,64.76-149.82s52.18-43,63.29-33.87,21.87,16.76,16.52,20.25-35.83,9.85-29.5,17.73,23.71,5.49,19.52,11.52-29.76-2.57-71.32,73.88-52.39,82.88-55.33,84.7S1165.85,757.67,1165.85,757.67Z"/><path class="cls-7" d="M1177.56,756.14a3.53,3.53,0,0,1-3.55-3.53,3.49,3.49,0,0,1,.47-1.78c.4-.69,39.36-68.6,46.1-88.72,7.21-21.48,37.94-60,44.47-63.58a3.54,3.54,0,1,1,3.5,6.16l-.14.07c-4.6,2.63-34.35,39.47-41.11,59.61-7,20.78-45,87.17-46.67,90A3.53,3.53,0,0,1,1177.56,756.14Z"/><path class="cls-10" d="M1226.77,587.59c7.31,5.89,22.13,1,21.85,5.82a2.62,2.62,0,0,1-.29,1.2c-1.06,2.48-5.53,3.69-11.91,8.58-.41.35-.84.69-1.28,1-10.57,8.72-26,27.73-40.35,78-5,17.59-9.37,31.85-13.12,43.41-2.2,6.52-4.12,12.27-5.89,17.16-.92,2.41-1.7,4.54-2.41,6.6-2.41,6.17-4.47,10.92-6.17,14.61-4.47,9.57-6.88,11.91-8,13-.35.36-.92.08-1.63-.71,2.2-9.43.07-18.79-3.47-26.87a85.86,85.86,0,0,0-6.17-11.35c.28-3.69.63-7.87,1.06-12.41,1.06-12.13,2.48-27,4.47-42.49v-.07c1.91-15.1,4.25-30.71,7.23-44.75,4.12-19.08,9.36-35.39,16.1-43.76,23.83-29.72,41.56-53.4,54.4-46.81,5.53,2.77,10.92,5.32,14.89,7.66,5.32,3.12,8.16,5.89,5.61,8.51C1247.2,568.48,1218.9,581.25,1226.77,587.59Z"/><g class="cls-11"><path class="cls-12" d="M1226.77,587.59c7.31,5.89,22.13,1,21.85,5.82a2.62,2.62,0,0,1-.29,1.2c-1.06,2.48-5.53,3.69-11.91,8.58-.41.35-.84.69-1.28,1-10.57,8.72-26,27.73-40.35,78-5,17.59-9.37,31.85-13.12,43.41-2.2,6.52-4.12,12.27-5.89,17.16-.92,2.41-1.7,4.54-2.41,6.6-2.41,6.17-4.47,10.92-6.17,14.61-4.47,9.57-6.88,11.91-8,13-.35.36-.92.08-1.63-.71,2.2-9.43.07-18.79-3.47-26.87a165.31,165.31,0,0,1,5.39-23.76c1.56-5.32,3.4-10.71,5.39-16.1,2-5.68,4.25-11.42,6.66-17.1.93-2.34,1.92-4.61,2.91-6.88,17.87-41.84,39.72-80.56,34.61-91.2-6.45-13.34,22-30.92,37-38.94,5.32,3.12,8.16,5.89,5.61,8.51C1247.2,568.48,1218.9,581.25,1226.77,587.59Z"/></g><path class="cls-7" d="M1156.47,750.93a3.53,3.53,0,0,1-3.54-3.54,3.45,3.45,0,0,1,.16-1.06c.23-.75,23.49-75.51,25.69-96.62,2.36-22.53,24-66.87,29.56-71.74a3.55,3.55,0,0,1,4.66,5.36h0c-3.92,3.56-25,46-27.17,67.12-2.27,21.8-25,94.89-26,98A3.55,3.55,0,0,1,1156.47,750.93Z"/><path class="cls-7" d="M1170.7,781.28h-.49a3.55,3.55,0,0,1-3-4,335.07,335.07,0,0,0-21.32-171.21,3.55,3.55,0,0,1,6.51-2.84l.07.18a342.21,342.21,0,0,1,21.77,174.84A3.56,3.56,0,0,1,1170.7,781.28Z"/><path class="cls-9" d="M1151,609.33s-9.56-2.28-20-14.2,13.19-21.85,18.31-15.09a4.76,4.76,0,0,1,1,2.1,13.26,13.26,0,0,1,4.73,2.48C1162.24,590.43,1151,609.33,1151,609.33Z"/><path class="cls-7" d="M1183.24,781a3.55,3.55,0,0,1-3.5-3,334.75,334.75,0,0,0-70.31-157.55,3.55,3.55,0,1,1,5.38-4.63,2.09,2.09,0,0,1,.14.17,342,342,0,0,1,71.8,160.89,3.57,3.57,0,0,1-3,4.07h0A4.4,4.4,0,0,1,1183.24,781Z"/><path class="cls-3" d="M1186.63,870.26h-18.37c-57.45-3.19-24.61-60.64-12.62-88a32.23,32.23,0,0,0,1.91-6c2.2-9.43.07-18.79-3.47-26.87a81.58,81.58,0,0,0-16.1-23.76h78.93s-29.64,29.29-17.66,56.66S1244.08,867.07,1186.63,870.26Z"/><path class="cls-2" d="M949.44,745.59,782.65,850.4,596.74,865.55l-4.13.31-1.07-2.45-37.19-80L480.45,625S585.72,493.52,640,505.76l1.23-.16,32.28-2.6,83.7-7,37.49-3.21,33-2.75s27.85-.77,46.21,3.67l5,17Z"/><g class="cls-11"><path class="cls-12" d="M949.44,745.59,782.65,850.4l-190,15.46-1.07-2.45c42.07-24.79,136.79-56,136.79-56S858,751.72,849.26,687c-7-71.92,13.61-137.56,29.83-176.28Z"/></g><path class="cls-13" d="M692.14,836.1s-70.39,6.58-72.77,11.94-1.73,32.76-1.73,32.76,67.35-1.19,84,0S692.14,836.1,692.14,836.1Z"/><polygon class="cls-13" points="783.11 493.82 709.97 592.37 684.72 583.64 663 502.09 684.72 502.09 683.19 492.75 670.34 414.41 717.93 355.8 739.04 400.48 783.11 493.82"/><path class="cls-14" d="M986.93,867.34c-54.47,36.57-291.19,20.81-291.19,20.81l-10.56-53.87s147.36-90.43,208.72-69.16c0,0-21-85.69-24.49-108.49,0,0-26.93-118.74,4.59-163,36.12,8.57,94.88,37.18,125.17,131.29C1044.77,767.11,1041.25,830.59,986.93,867.34Z"/><path class="cls-15" d="M794.74,492.75,735.07,593.13a32.43,32.43,0,0,1-27.85,16.53,9,9,0,0,1-2-.16c-12.09-.76-22.8-8.57-28-20.5l-36-83.4L673.5,503l31.83,73.91a3.71,3.71,0,0,0,1.84,2.14c.46,0,1.07-.61,1.53-1.53L757.2,496Z"/><g class="cls-11"><path class="cls-12" d="M739,400.48c-1.22,44.38-12.7,96.1-55.85,92.27L670.3,414.41l47.59-58.61Z"/></g><path class="cls-13" d="M532.44,277.79S541,538,718,425.86s38.71-186.17,38.71-186.17Z"/><path class="cls-3" d="M590.73,436.83s-73.66-103.18-49.65-160.5c0,0,81.64,65.7,100.19,64.61,0,0-33.67-23.62-29.34-64.61,0,0,71,109.18,103,110.33.69,0,6.21,17.13,6.78,18.55,3.33,8.3,7.31,16.42,13.16,23.26,7.27,8.51,17,14.59,27.31,19,28.13,12,70.25,14.62,95.37-5.92,19-15.55,14.52-40.19,4.58-59.66-13.61-26.67-28.57-52.53-43.48-78.48-15.62-27.17-28.07-60.31-53.16-80.3-64.66-51.49-181-42.42-238,17.62-12.86,13.54-22.07,30.32-25,48.88a631.55,631.55,0,0,0-7.1,77.42c-1.17,36.79,1.7,82.54,39.65,100.33,11.56,5.43,29.21,9.19,40.56,1.83C586.23,462.29,589.86,448.78,590.73,436.83Z"/><path class="cls-2" d="M593.62,193.73,611.27,185a5.7,5.7,0,0,1,7.19,1.78c14.34,20.1,78.54,111.34,79.46,136.09,0,0-81.92-108.8-104.67-126.09a1.82,1.82,0,0,1-.27-2.56A1.85,1.85,0,0,1,593.62,193.73Z"/><circle class="cls-13" cx="690.21" cy="339.28" r="38.13"/><g class="cls-11"><polygon class="cls-12" points="617.55 608.28 596.74 865.5 592.61 865.81 591.53 863.36 554.35 783.33 617.55 608.28"/></g><path class="cls-3" d="M648.81,888.17H305.18L255.12,663.36c-4.71-21.17,7.07-38.34,26.31-38.34h274c19.24,0,38.66,17.17,43.37,38.34Z"/><rect class="cls-15" x="38.88" y="864.87" width="1285.33" height="32.26"/><circle class="cls-16" cx="430.72" cy="756.68" r="30.18" transform="translate(-423.96 590.54) rotate(-49.35)"/><rect class="cls-15" x="976.29" y="437.99" width="491.71" height="19.17"/></g></g></g></svg>