<svg id="Слой_1" data-name="Слой 1" xmlns="http://www.w3.org/2000/svg" viewBox="0 0 236.16 109.41"><defs><style>.cls-1{fill:none;}.cls-2{fill:#eb5d54;}.cls-3{fill:#fb5d51;}</style></defs><g id="Слой_1-2" data-name="Слой 1-2"><path class="cls-1" d="M199.25,53c-4.44-8.83-16.43-9-23.32-3a23.47,23.47,0,0,0-7.22,12.43,27.32,27.32,0,0,0,.33,15c2.1,6,7.18,9.74,13,11.5a58.35,58.35,0,0,0,9-7.49C198,74.17,204.24,62.93,199.25,53Z"/><path class="cls-1" d="M218.91,17a6.09,6.09,0,0,1,.76-.92,3.71,3.71,0,0,1,.55-.43c-.39,0-.78-.14-1.17-.18Z"/><path class="cls-2" d="M235.32,17.6a31.07,31.07,0,0,0-18-6.58A2.2,2.2,0,0,0,215,13l-1.59,17c-.22,2.34,3.45,3.35,4.15,1a53.2,53.2,0,0,1,3.41-8.73c.31-.61.62-1.21,1-1.8l.36-.54h0a19.24,19.24,0,0,1,.95,2.46,69.87,69.87,0,0,1,3.27,17.72c.78,11.3-1.14,23-7.2,32.7-5.57,8.9-14.3,15.51-24.84,17a29.1,29.1,0,0,1-6.53.17c1.54-1.21,3-2.47,4.44-3.83,8.64-8.24,15.92-20.48,11.74-32.69a17.28,17.28,0,0,0-11.4-11.09A21.25,21.25,0,0,0,177,44c-10.36,5.55-14.49,18.62-13.07,29.76A21.89,21.89,0,0,0,172.73,89a27.12,27.12,0,0,0,4.77,2.71,92.08,92.08,0,0,1-13.69,6.39,111,111,0,0,1-66.45,3.54q-4.12-1.05-8.15-2.49c-2.68-1-4.15,3.12-1.53,4a114.23,114.23,0,0,0,36.73,6.22,116.49,116.49,0,0,0,37.17-6,94.47,94.47,0,0,0,21.24-9.91,32.48,32.48,0,0,0,6.51.81c12,.26,23-5.61,30.46-14.88,7.83-9.82,11.19-22.5,11.1-34.93a80.83,80.83,0,0,0-2.63-20.11c-.43-1.61-.93-3.22-1.52-4.79A11.39,11.39,0,0,0,225.49,17a27,27,0,0,1,7.31,4.1C235,22.82,237.49,19.31,235.32,17.6Zm-15.65-1.53a6.09,6.09,0,0,0-.76.92l.14-1.53a11.82,11.82,0,0,1,1.17.18A3.71,3.71,0,0,0,219.67,16.07ZM182.1,88.83c-5.83-1.76-10.9-5.48-13-11.5a27.41,27.41,0,0,1-.32-15A23.56,23.56,0,0,1,176,49.9C182.9,44,194.87,44.16,199.3,53c5,10-1.21,21.17-8.18,28.36A57,57,0,0,1,182.1,88.83Z"/></g><path class="cls-3" d="M4.86,57.9a5.61,5.61,0,0,0-.33.87c-.11.39-.24.83-.36,1.32s-.24,1-.36,1.51-.21,1-.29,1.46A10.37,10.37,0,0,0,3.34,65a7.09,7.09,0,0,0,.22,1.84.29.29,0,0,1,0,.17q-.07.36-1,.18l-.17,0c-.65-.14-1-.69-.92-1.64,0-.51.08-1.11.17-1.81s.21-1.39.35-2.09a39,39,0,0,1,1-4,1.6,1.6,0,0,0,0-.36c0-.16,0-.27,0-.34.1-.52.48-.77,1.1-.75l1.77.09,1.86.11,1.63.12c.48,0,.85.07,1.09.11a1.61,1.61,0,0,1,.89.38.75.75,0,0,1,.2.67.56.56,0,0,1-.63.55q-.63,2.32-1,4.08c-.26,1.18-.46,2.25-.62,3.23a6.37,6.37,0,0,0-.08.69,1.7,1.7,0,0,0,0,.56,5.86,5.86,0,0,0,.16.62,3.27,3.27,0,0,0,.14.34.93.93,0,0,1,.07.19.2.2,0,0,1,0,.13c0,.25-.37.32-1,.22a1.27,1.27,0,0,1-.89-.51,2,2,0,0,1-.24-1.13c0-.6,0-1.3.14-2.07s.21-1.68.39-2.69c.2-1.22.45-2.48.68-3.74,0-.15-.07-.27-.29-.29-.47-.07-1-.1-1.56-.13l-1.47-.1-.31,0A.42.42,0,0,0,4.86,57.9Z"/><path class="cls-3" d="M18.74,66.22a4.21,4.21,0,0,1-1.17,2.57,3.2,3.2,0,0,1-2.83.93,3.17,3.17,0,0,1-2.43-1.39,3.8,3.8,0,0,1-.42-2.61,5.85,5.85,0,0,1,1.28-2.82,3,3,0,0,1,2.76-1.3,2.69,2.69,0,0,1,1.16.56A4.07,4.07,0,0,1,18.74,66.22ZM17.07,66c.22-1.77-.13-2.71-1.06-2.83a1.65,1.65,0,0,0-1.66.92A4.76,4.76,0,0,0,13.71,66c-.22,1.53.18,2.37,1.2,2.51a1.56,1.56,0,0,0,1.58-.77A3.73,3.73,0,0,0,17.07,66Z"/><path class="cls-3" d="M26.37,68.44c0,.36-.37.76-1,1.2a4.14,4.14,0,0,1-1.54.73,5.28,5.28,0,0,1-1.24.06,3.2,3.2,0,0,1-2.3-1.12A3.06,3.06,0,0,1,19.68,67a7.27,7.27,0,0,1,1.1-2.91c.76-1.26,1.53-1.85,2.34-1.77a3.74,3.74,0,0,1,1.58.64,2.28,2.28,0,0,1,1.09,1.18,3.75,3.75,0,0,1,.06,1.08,3.71,3.71,0,0,1-.35,1.2c-.25.56-.53.83-.83.81a1.2,1.2,0,0,1-.6-.23.57.57,0,0,1-.3-.5s.07-.14.21-.38a3,3,0,0,0,.18-.95,3.49,3.49,0,0,0,0-.84c0-.36-.2-.56-.48-.58-.61-.06-1.13.39-1.57,1.33a6.58,6.58,0,0,0-.6,2.17c-.13,1.24.24,1.9,1.12,2a2.08,2.08,0,0,0,1.23-.38,2.87,2.87,0,0,0,.95-.85.87.87,0,0,1,.79-.49.73.73,0,0,1,.53.35A.87.87,0,0,1,26.37,68.44Z"/><path class="cls-3" d="M37.39,64.11a.49.49,0,0,1-.08.24l-.17.21a2.93,2.93,0,0,0-.18.26,1,1,0,0,0-.11.37c0,.21-.06.63-.1,1.25s-.06,1.5-.1,2.63c0,.33,0,.58,0,.77s0,.31,0,.41a.43.43,0,0,0,.08.19l.12.11c.16.12.24.24.24.34a.47.47,0,0,1-.27.39.87.87,0,0,1-.46.13,1.28,1.28,0,0,1-1.21-.57,3.12,3.12,0,0,1-.24-1.55c0-.17,0-.45.08-.83s.12-.89.22-1.52a9.93,9.93,0,0,1-.6,1.48,7.63,7.63,0,0,1-.72,1.19,3.86,3.86,0,0,1-.79.78,1.29,1.29,0,0,1-.8.26,1.59,1.59,0,0,1-.56-.14,3.46,3.46,0,0,1-.52-.32,3.42,3.42,0,0,1-.43-.42,3,3,0,0,1-.29-.43A9.89,9.89,0,0,1,30,68.11a15.61,15.61,0,0,1-.55-1.8L29.33,68a4.91,4.91,0,0,0,0,.57c0,.2,0,.39,0,.57a2,2,0,0,0,0,.44c0,.13,0,.2.08.21.21.11.32.25.3.43a.47.47,0,0,1-.32.39,1.62,1.62,0,0,1-.84.13c-.74-.06-1.07-.75-1-2.09a18.25,18.25,0,0,1,.31-2.27,16.45,16.45,0,0,0,.3-2.22.36.36,0,0,0,0-.17.39.39,0,0,1,0-.18c0-.5.57-.71,1.59-.65a1.61,1.61,0,0,1,.37.07.92.92,0,0,1,.32.18.78.78,0,0,1,.21.33,1.12,1.12,0,0,1,.06.54,2.39,2.39,0,0,0,.09.66c.06.29.14.62.25,1s.22.73.35,1.11.27.71.4,1a8.05,8.05,0,0,0,.36.76q.16.3.24.3c.13,0,.28-.09.45-.28a5.32,5.32,0,0,0,.55-.84c.19-.35.39-.78.6-1.26s.4-1,.6-1.6l.18-.5a2.26,2.26,0,0,1,.34-.57,1.68,1.68,0,0,1,.55-.47,1.49,1.49,0,0,1,.85-.17,1,1,0,0,1,.65.23A.56.56,0,0,1,37.39,64.11Z"/><path class="cls-3" d="M45.3,67.63a4.24,4.24,0,0,1-.84,2.7,3.18,3.18,0,0,1-2.66,1.28,3.12,3.12,0,0,1-2.55-1.09A3.78,3.78,0,0,1,38.51,68a5.79,5.79,0,0,1,.92-3A2.91,2.91,0,0,1,42,63.4a2.78,2.78,0,0,1,1.21.4A4.13,4.13,0,0,1,45.3,67.63Zm-1.67,0c0-1.78-.47-2.67-1.39-2.68a1.62,1.62,0,0,0-1.51,1.13A4.72,4.72,0,0,0,40.32,68c0,1.56.48,2.34,1.49,2.35a1.55,1.55,0,0,0,1.46-1A4,4,0,0,0,43.63,67.6Z"/><path class="cls-3" d="M53.05,63.92c0,.07-.06.16-.17.28a1.12,1.12,0,0,1-.52.31,4.41,4.41,0,0,1-1.07.21c-.41,0-.76.08-1,.13v.89c0,.21,0,.44,0,.68l0,.7,0,.77c0,.12,0,.33,0,.62a5.52,5.52,0,0,0,.11.8c.05.22.1.43.12.59a2.27,2.27,0,0,1,0,.42.64.64,0,0,1-.28.51,1,1,0,0,1-.61.23c-.33,0-.6-.23-.82-.73a4.14,4.14,0,0,1-.25-.9,12.13,12.13,0,0,1-.13-1.61l0-2c0-.3,0-.59,0-.85l-1.33.13a2.76,2.76,0,0,1-1-.11c-.27-.09-.4-.22-.41-.4a.59.59,0,0,1,.42-.57,3.44,3.44,0,0,1,1-.22c1.75-.15,2.62-.24,4.35-.44a2.46,2.46,0,0,1,1.12.1A.55.55,0,0,1,53.05,63.92Z"/><path class="cls-3" d="M60,66.27a6.1,6.1,0,0,1-.45,3.07,2.79,2.79,0,0,1-2.48,1.79,2.61,2.61,0,0,1-1.65-.4l0,.53,0,.52a6.83,6.83,0,0,0,.58,2.62,1.61,1.61,0,0,1,.22.47c0,.4-.23.61-.75.64a1.61,1.61,0,0,1-.89-.14c-.15-.08-.31-.36-.47-.86a4.19,4.19,0,0,1-.23-1l-.2-4.21c0-.39,0-.92,0-1.58s0-1.27,0-1.56,0-.68-.06-1.16,0-1-.06-1.17c0-1,.27-1.5.95-1.54a.89.89,0,0,1,.49.14.51.51,0,0,1,.24.39c0,.25,0,.72,0,1.4A2.15,2.15,0,0,1,57,63.15a2.48,2.48,0,0,1,2.19.9A3.87,3.87,0,0,1,60,66.27Zm-1.68,0q-.14-1.89-1-1.83c-.25,0-.56.26-.93.74a5.74,5.74,0,0,0-1.08,3.7,3.74,3.74,0,0,1,.79.69A1.14,1.14,0,0,0,57,70C58.07,69.89,58.52,68.65,58.35,66.24Z"/><path class="cls-3" d="M61.54,68.75q-.06-.77-.12-1.56t-.09-1.5c0-.48,0-.91,0-1.31a9.2,9.2,0,0,1,0-.94.54.54,0,0,1,.13-.25,1.59,1.59,0,0,1,.29-.29l.36-.24a1.06,1.06,0,0,1,.33-.11,1,1,0,0,1,.27,0,1.43,1.43,0,0,1,.28.13,2.11,2.11,0,0,1,.23.19.31.31,0,0,1,.11.2v.27a1.4,1.4,0,0,1-.07.38c0,.17-.09.44-.14.81S63,65.41,63,66c0,.4-.05.83-.07,1.28a8.88,8.88,0,0,0,0,1.36c0,.1.06.15.15.14a.5.5,0,0,0,.21-.08.87.87,0,0,0,.25-.33c.19-.41.36-.77.5-1.09s.25-.64.35-.94.18-.61.26-.92.15-.64.22-1,.17-.76.25-1a2.07,2.07,0,0,1,.32-.65,1,1,0,0,1,.44-.36,2,2,0,0,1,.61-.14c.76-.09,1.14.11,1.21.47a.3.3,0,0,1,0,.19,1.18,1.18,0,0,0,0,.28,19.57,19.57,0,0,0,0,2.34c.06.69.13,1.37.2,2a3,3,0,0,0,.83,2,1.38,1.38,0,0,1-.39.38,1.29,1.29,0,0,1-.5.14,1,1,0,0,1-.72-.16,1.73,1.73,0,0,1-.46-.57,2.7,2.7,0,0,1-.28-.8,6.69,6.69,0,0,1-.14-.86,4.57,4.57,0,0,1,0-.84c0-.32,0-.63.05-.92s0-.54.07-.76,0-.36,0-.42,0-.08-.07-.08-.13.13-.22.38-.18.52-.27.83l-.26.88c-.08.28-.13.45-.16.53q-.34,1-.6,1.56a4.81,4.81,0,0,1-.5.93,1.49,1.49,0,0,1-.53.46,1.93,1.93,0,0,1-.64.17A1.29,1.29,0,0,1,62,70,2.08,2.08,0,0,1,61.54,68.75Z"/><path class="cls-3" d="M75.61,61.66a.45.45,0,0,1-.13.3,1.26,1.26,0,0,1-.48.36,4.39,4.39,0,0,1-1,.33c-.4.08-.74.16-1,.23,0,.07,0,.19,0,.34s0,.34.06.55,0,.44.08.68l.1.69.11.77c0,.11,0,.32.11.61a7.05,7.05,0,0,0,.2.77l.19.58a2.66,2.66,0,0,1,.08.41.62.62,0,0,1-.23.54,1.06,1.06,0,0,1-.57.3c-.32,0-.62-.17-.89-.64a4.49,4.49,0,0,1-.34-.87A10.91,10.91,0,0,1,71.57,66l-.26-2c0-.3-.08-.58-.1-.85l-1.29.27a2.83,2.83,0,0,1-1,0c-.27-.06-.42-.17-.44-.35a.58.58,0,0,1,.34-.61,3.09,3.09,0,0,1,1-.32c1.71-.35,2.56-.53,4.26-.91a2.5,2.5,0,0,1,1.12,0A.56.56,0,0,1,75.61,61.66Z"/><path class="cls-3" d="M83,65.89c.1.58-.24,1.1-1,1.58a5.71,5.71,0,0,1-2,.74c-1.94.33-3.07-.53-3.38-2.55a7.3,7.3,0,0,1,.21-2.87c.33-1.32.85-2,1.59-2.17a3.77,3.77,0,0,1,2.31.47c.87.42,1.37.93,1.48,1.54a2.07,2.07,0,0,1-.76,2,4.27,4.27,0,0,1-2.2,1,2.18,2.18,0,0,1-.88-.15c.22,1.08.67,1.57,1.32,1.46a3.37,3.37,0,0,0,1.54-.71,3.34,3.34,0,0,1,.94-.61C82.6,65.53,82.9,65.62,83,65.89ZM80.34,63a1.49,1.49,0,0,0-.41-.77.84.84,0,0,0-.78-.26,1.08,1.08,0,0,0-.85.66,1.86,1.86,0,0,0-.1,1.06.67.67,0,0,0,.33.5.91.91,0,0,0,.64.1Q80.52,64.07,80.34,63Z"/><path class="cls-3" d="M84,66.44a.94.94,0,0,1,.24-.78,1.46,1.46,0,0,1,.83-.48,1.22,1.22,0,0,1,1,.26,1.64,1.64,0,0,1,.62,1,3.81,3.81,0,0,1,.09,1.21,2.67,2.67,0,0,1-.35,1,4,4,0,0,1-.7.93,1.54,1.54,0,0,1-.79.49.66.66,0,0,1-.49-.13.32.32,0,0,1,0-.44c.15-.17.44-.37.62-.6a1.58,1.58,0,0,0,.35-.79,1.24,1.24,0,0,0,0-.54A.65.65,0,0,0,85,67.2a3.6,3.6,0,0,1-.62-.27A.67.67,0,0,1,84,66.44Z"/><path class="cls-3" d="M98.16,64.64a2.2,2.2,0,0,1-1,.76,1.36,1.36,0,0,1-.86-.14,11.12,11.12,0,0,1-1.18-.64c-.44-.27-.92-.57-1.43-.91s-1-.66-1.6-1a.16.16,0,0,0-.1,0s0,0,0,.08l.34,1.47a1.12,1.12,0,0,0,.21.37,1.14,1.14,0,0,1,.22.39.51.51,0,0,1-.17.48,1.06,1.06,0,0,1-.51.31,1.18,1.18,0,0,1-.87-.11c-.25-.15-.48-.69-.69-1.64-.07-.29-.12-.55-.16-.78l-.12-.65c0-.2-.07-.42-.11-.64s-.09-.49-.16-.78-.15-.63-.23-.89a4.84,4.84,0,0,0-.34-.83,1.49,1.49,0,0,1-.17-.43.46.46,0,0,1,0-.32,1,1,0,0,1,.22-.32,2.16,2.16,0,0,1,.33-.27,1.18,1.18,0,0,1,.36-.17,1,1,0,0,1,.3,0,.89.89,0,0,1,.32.08,1.06,1.06,0,0,1,.28.15.41.41,0,0,1,.14.21,3.71,3.71,0,0,1,0,.51,4.74,4.74,0,0,0,.12,1l.15.64c.63-.85.94-1.28,1.55-2.14.41-.57.73-1,1-1.31s.41-.47.51-.5a.81.81,0,0,1,.76.11,1.41,1.41,0,0,1,.43.76.48.48,0,0,1-.12.3,4.14,4.14,0,0,1-.37.46l-.53.57c-.21.22-.4.44-.6.68-.85,1-1.25,1.66-1.2,1.9a1.8,1.8,0,0,0,.32.22c.2.12.51.33.93.61l1.33.87a10.62,10.62,0,0,0,1,.55,4.6,4.6,0,0,0,.8.32,3.81,3.81,0,0,0,.81.13q.12,0,.18.24A.32.32,0,0,1,98.16,64.64Z"/><path class="cls-3" d="M104.83,59.13a23,23,0,0,1,.77,3.1c0,.36-.16.61-.62.75-.68.2-1.08,0-1.19-.68a4.76,4.76,0,0,1-1.79,1,4,4,0,0,1-1.94.06c-.79-.17-1.25-.52-1.39-1.06s.12-1.13.77-1.8a4.09,4.09,0,0,1,1.8-1.17l1.53-.44-.11-.4c-.33-1.17-.87-1.65-1.61-1.43-.94.26-1.3.8-1.08,1.63.08.28,0,.46-.39.55a1,1,0,0,1-.71-.09.71.71,0,0,1-.48-.46,2,2,0,0,1,.3-1.74,2.64,2.64,0,0,1,1.54-1.08C102.45,55.19,104,56.28,104.83,59.13Zm-1.64,1.14c-.07-.22-.28-.28-.64-.18-1.51.43-2.18,1-2,1.63.1.36.48.45,1.15.26a2.31,2.31,0,0,0,1.08-.65A1.08,1.08,0,0,0,103.19,60.27Z"/><path class="cls-3" d="M114.27,59.8a2.17,2.17,0,0,1-.93.83,1.28,1.28,0,0,1-.86-.08,8.59,8.59,0,0,1-1.23-.54c-.46-.24-1-.5-1.5-.8s-1.09-.58-1.66-.84a.12.12,0,0,0-.1,0s0,0,0,.08l.46,1.44a1,1,0,0,0,.24.35,1.12,1.12,0,0,1,.24.37.5.5,0,0,1-.13.49,1,1,0,0,1-.48.35,1.21,1.21,0,0,1-.88,0c-.26-.13-.53-.66-.82-1.58-.09-.29-.16-.55-.21-.77s-.11-.43-.17-.63-.11-.42-.16-.64-.13-.48-.22-.77-.2-.61-.3-.87a6.63,6.63,0,0,0-.4-.8,1.43,1.43,0,0,1-.21-.41.54.54,0,0,1,0-.33,1.17,1.17,0,0,1,.2-.33,1.7,1.7,0,0,1,.3-.3,1.09,1.09,0,0,1,.35-.19,1.23,1.23,0,0,1,.29,0,1,1,0,0,1,.34.05,1.2,1.2,0,0,1,.28.13.39.39,0,0,1,.16.2,3.68,3.68,0,0,1,0,.51,4.24,4.24,0,0,0,.19,1l.2.64c.56-.91.84-1.36,1.38-2.26l.87-1.39c.22-.32.37-.5.46-.53a.87.87,0,0,1,.78.05,1.37,1.37,0,0,1,.48.73.45.45,0,0,1-.09.31c-.09.14-.2.3-.34.48s-.3.39-.49.62-.36.47-.54.72c-.76,1.09-1.12,1.74-1.05,2a1.53,1.53,0,0,0,.33.2c.22.1.54.29,1,.53s1,.57,1.39.77.72.36,1,.48a5.71,5.71,0,0,0,.82.25,4.25,4.25,0,0,0,.82.07c.08,0,.15.07.2.23A.28.28,0,0,1,114.27,59.8Z"/><path class="cls-3" d="M123.43,52.21a.5.5,0,0,1,0,.34.53.53,0,0,1-.11.21,2.09,2.09,0,0,0-.14.17.3.3,0,0,0,0,.24,4.61,4.61,0,0,1,0,1.33,3.74,3.74,0,0,1-.32,1.18,3.09,3.09,0,0,1-.69,1,3.32,3.32,0,0,1-1,.65,3.73,3.73,0,0,1-1.48.28,3,3,0,0,1-1.27-.38,2.88,2.88,0,0,1-.44-.3,1.29,1.29,0,0,1-.35-.52c-.05-.16,0-.34.22-.56a1.85,1.85,0,0,1,.75-.49.39.39,0,0,1,.25,0,.33.33,0,0,1,.15.11.78.78,0,0,1,.11.18.56.56,0,0,0,.11.17,1.3,1.3,0,0,0,1.49.33,1.41,1.41,0,0,0,.89-.95,2.92,2.92,0,0,0,0-1.61c0-.13-.13-.17-.25-.13l-.6.21-.72.28a1.73,1.73,0,0,0-.61.41,1.38,1.38,0,0,1-.54.38.76.76,0,0,1-.68,0,1,1,0,0,1-.43-.54c-.06-.16,0-.26.08-.31.57-.21,1.13-.44,1.7-.69l1.48-.66a.27.27,0,0,0,.08-.07s0-.07,0-.13c-.63-1.16-1.28-1.61-2-1.35a1.35,1.35,0,0,0-.61.43,2.24,2.24,0,0,0-.32.55,1.72,1.72,0,0,0-.12.5c0,.14,0,.23,0,.25l0,.08a.15.15,0,0,1,.05.07c0,.06,0,.11-.08.15a2.81,2.81,0,0,1-.43.19,1.58,1.58,0,0,1-.66.11.41.41,0,0,1-.4-.28,2.46,2.46,0,0,1,0-1.18,3.16,3.16,0,0,1,.6-1.39,2.45,2.45,0,0,1,1.11-.8,2.72,2.72,0,0,1,.5-.08,2.81,2.81,0,0,1,.76,0,4.76,4.76,0,0,1,1.84.68,3.13,3.13,0,0,1,1.22,1.5.37.37,0,0,0,.17.21,1.09,1.09,0,0,0,.23.09l.22.06A.27.27,0,0,1,123.43,52.21Z"/><path class="cls-3" d="M129,46a.48.48,0,0,1,0,.33,1.18,1.18,0,0,1-.37.47,4.34,4.34,0,0,1-.91.59c-.37.19-.67.35-.92.5,0,.06.07.17.12.31s.13.32.2.52.17.4.26.63l.28.64.3.71.27.56a7,7,0,0,0,.4.7c.13.19.25.36.33.5s.14.27.19.38a.63.63,0,0,1-.08.58,1.09,1.09,0,0,1-.47.44c-.31.12-.65,0-1-.39a4,4,0,0,1-.56-.75,12.35,12.35,0,0,1-.71-1.45l-.79-1.89c-.11-.28-.22-.55-.31-.8l-1.18.6a2.69,2.69,0,0,1-1,.27c-.28,0-.45-.06-.52-.23a.58.58,0,0,1,.18-.68,3.16,3.16,0,0,1,.83-.56c1.56-.78,2.34-1.17,3.87-2a2.61,2.61,0,0,1,1.07-.32A.56.56,0,0,1,129,46Z"/><path class="cls-3" d="M136.9,46.17a4.2,4.2,0,0,1,.4,2.79,3.14,3.14,0,0,1-1.84,2.29,3.11,3.11,0,0,1-2.75.1,3.79,3.79,0,0,1-1.74-2,5.8,5.8,0,0,1-.45-3.06,2.91,2.91,0,0,1,1.58-2.55,2.55,2.55,0,0,1,1.26-.15A4.11,4.11,0,0,1,136.9,46.17Zm-1.51.68c-.77-1.61-1.56-2.22-2.39-1.83a1.62,1.62,0,0,0-.88,1.66,4.83,4.83,0,0,0,.47,1.92c.64,1.41,1.42,1.91,2.33,1.49a1.53,1.53,0,0,0,.9-1.49A3.88,3.88,0,0,0,135.39,46.85Z"/><path class="cls-3" d="M146.1,40.61a6.27,6.27,0,0,1,.86,3,2.78,2.78,0,0,1-1.54,2.65,2.59,2.59,0,0,1-1.65.32L144,47l.24.47a6.77,6.77,0,0,0,1.6,2.15,1.57,1.57,0,0,1,.4.34c.18.35,0,.65-.42.89a1.57,1.57,0,0,1-.87.23c-.16,0-.43-.2-.78-.58a4.24,4.24,0,0,1-.62-.83l-1.91-3.75c-.18-.35-.39-.83-.65-1.44s-.51-1.17-.63-1.43-.3-.61-.52-1l-.54-1c-.45-.89-.37-1.48.23-1.8a.84.84,0,0,1,.5-.07.5.5,0,0,1,.38.25c.12.23.3.66.56,1.29a2.15,2.15,0,0,1,1.1-1.67,2.45,2.45,0,0,1,2.36-.07A3.74,3.74,0,0,1,146.1,40.61Zm-1.54.66c-.6-1.11-1.15-1.53-1.66-1.26-.22.12-.4.47-.54,1.06a5.78,5.78,0,0,0,.54,3.81,4,4,0,0,1,1,.31,1.17,1.17,0,0,0,1,0C145.81,44.71,145.7,43.4,144.56,41.27Z"/><path class="cls-3" d="M153.67,37.64a22.52,22.52,0,0,1,1.51,2.82c.13.34,0,.64-.42.88-.62.36-1.06.24-1.33-.36a4.82,4.82,0,0,1-1.51,1.37,4.13,4.13,0,0,1-1.88.54,1.6,1.6,0,0,1-1.61-.69c-.27-.48-.16-1.12.31-1.93a4,4,0,0,1,1.47-1.58l1.38-.81-.21-.36q-.9-1.58-1.92-1c-.85.49-1.07,1.1-.64,1.85.14.25.06.46-.25.63a1.07,1.07,0,0,1-.71.1.76.76,0,0,1-.58-.33,2,2,0,0,1-.14-1.77,2.62,2.62,0,0,1,1.24-1.43C150.39,34.42,152.15,35.09,153.67,37.64Zm-1.32,1.52c-.12-.2-.34-.2-.67,0-1.37.79-1.89,1.48-1.55,2.08.19.32.58.31,1.19,0a2.33,2.33,0,0,0,.89-.9A1.09,1.09,0,0,0,152.35,39.16Z"/><path class="cls-3" d="M152.39,31a1.85,1.85,0,0,1,.09-2.08,7.83,7.83,0,0,1,2.41-2.18,1,1,0,0,1,.69-.22.75.75,0,0,1,.43.35.66.66,0,0,1,.14.64,1,1,0,0,1-.43.46,1.2,1.2,0,0,1-.37.17.87.87,0,0,0-.33.14,9.89,9.89,0,0,0-.86.6,2.94,2.94,0,0,0-.47.48.58.58,0,0,0-.14.38.85.85,0,0,0,.12.36,1.22,1.22,0,0,0,.8.48,7.11,7.11,0,0,0,1.6.16,7.74,7.74,0,0,1,1.07.1,4.19,4.19,0,0,1,2.15,1,5.41,5.41,0,0,1,1,1.17,4.42,4.42,0,0,1,.62,1.42,3.87,3.87,0,0,1,.09,1.43,3.2,3.2,0,0,1-.44,1.28,2.9,2.9,0,0,1-.95,1,4.35,4.35,0,0,1-1.28.55,3,3,0,0,1-1.29.05,3.09,3.09,0,0,1-1.21-.53,3.91,3.91,0,0,1-1.05-1.2,5.55,5.55,0,0,1-.64-1.44A4.76,4.76,0,0,1,154,34.3a4,4,0,0,1,.12-1,5.92,5.92,0,0,1,.22-.78.89.89,0,0,0,.06-.26v-.1c0-.05-.13-.09-.28-.11a2.58,2.58,0,0,1-.42-.1,3.21,3.21,0,0,1-.76-.39A2,2,0,0,1,152.39,31Zm3.92,5a2.58,2.58,0,0,0,1.25,1.17,1.33,1.33,0,0,0,1.2-.09,1.43,1.43,0,0,0,.47-.53,1.8,1.8,0,0,0,.2-.78,3.35,3.35,0,0,0-.11-.92,3.85,3.85,0,0,0-.44-1,4.58,4.58,0,0,0-.71-.86,3.45,3.45,0,0,0-.75-.53,3,3,0,0,0-.74-.27,3.37,3.37,0,0,0-.69-.07l-.2,0c-.06,0-.1.17-.15.42a4,4,0,0,0,0,.9,6.27,6.27,0,0,0,.17,1.21A4.63,4.63,0,0,0,156.31,36Z"/><path class="cls-3" d="M166.86,28.51a4.19,4.19,0,0,1,.84,2.7,3.15,3.15,0,0,1-1.46,2.56,3.11,3.11,0,0,1-2.72.56,3.77,3.77,0,0,1-2-1.67,5.71,5.71,0,0,1-.93-2.95,2.93,2.93,0,0,1,1.16-2.79,2.82,2.82,0,0,1,1.23-.35A4.11,4.11,0,0,1,166.86,28.51Zm-1.39.93q-1.53-2.21-2.67-1.41a1.62,1.62,0,0,0-.61,1.78,4.85,4.85,0,0,0,.77,1.82c.87,1.29,1.72,1.66,2.56,1.09a1.55,1.55,0,0,0,.66-1.62A4,4,0,0,0,165.47,29.44Z"/><path class="cls-3" d="M171.16,21a.52.52,0,0,1,0,.33,1.3,1.3,0,0,1-.26.55,4.73,4.73,0,0,1-.77.8c-.31.26-.58.5-.79.69l.2.28c.08.14.19.29.31.46s.25.36.4.55l.41.57.46.62.39.48c.2.23.38.43.55.59l.44.41c.11.12.2.23.27.32a.63.63,0,0,1,0,.59,1.12,1.12,0,0,1-.36.54c-.27.19-.64.15-1.1-.14a3.43,3.43,0,0,1-.72-.6,11.28,11.28,0,0,1-1-1.24l-1.21-1.66c-.17-.25-.34-.48-.48-.71l-1,.87a2.62,2.62,0,0,1-.88.49c-.28.08-.46,0-.57-.1a.59.59,0,0,1,0-.71,3,3,0,0,1,.7-.74c1.35-1.13,2-1.7,3.35-2.85a2.63,2.63,0,0,1,1-.57A.58.58,0,0,1,171.16,21Z"/><path class="cls-3" d="M179.34,19.63a20.79,20.79,0,0,1,1.89,2.57c.18.31.08.63-.29.93-.57.46-1,.41-1.37-.15a5.06,5.06,0,0,1-1.32,1.59,4.23,4.23,0,0,1-1.8.82,1.61,1.61,0,0,1-1.7-.44,2,2,0,0,1,0-2A4.23,4.23,0,0,1,176,21.19l1.27-1-.27-.33c-.75-1-1.43-1.18-2.05-.69-.78.62-.91,1.26-.38,1.93.18.23.12.45-.16.67a1.11,1.11,0,0,1-.69.2.74.74,0,0,1-.63-.24,2,2,0,0,1-.39-1.73,2.77,2.77,0,0,1,1-1.61C175.61,16.93,177.45,17.33,179.34,19.63Zm-1.11,1.71c-.15-.18-.37-.15-.67.09-1.25,1-1.67,1.75-1.25,2.29.23.3.63.23,1.18-.21a2.36,2.36,0,0,0,.76-1A1.09,1.09,0,0,0,178.23,21.34Z"/><path class="cls-3" d="M186,15.84c.38.44.35,1.08-.1,1.9a6.11,6.11,0,0,1-1.39,1.7c-1.53,1.3-2.95,1.14-4.25-.43A7,7,0,0,1,179,16.42c-.39-1.31-.3-2.21.29-2.71a4,4,0,0,1,2.25-.8,2.33,2.33,0,0,1,2.08.56A2.06,2.06,0,0,1,184,15.6a4.37,4.37,0,0,1-1.42,2,2.1,2.1,0,0,1-.85.33c.75.82,1.38,1,1.9.58a3.64,3.64,0,0,0,1-1.42,3.39,3.39,0,0,1,.51-1C185.54,15.71,185.85,15.63,186,15.84Zm-3.75-1.12a1.44,1.44,0,0,0-.75-.45.87.87,0,0,0-.81.17,1.09,1.09,0,0,0-.41,1,1.8,1.8,0,0,0,.45,1,.66.66,0,0,0,.54.25.94.94,0,0,0,.61-.24C182.62,15.83,182.74,15.26,182.28,14.72Z"/><path class="cls-3" d="M188.23,6.53a.44.44,0,0,1,.06.32,1.43,1.43,0,0,1-.2.58,5.07,5.07,0,0,1-.69.88c-.29.3-.53.56-.72.79l.22.25c.1.13.22.26.36.42l.46.51.47.52.52.56c.08.09.23.24.44.44a6.54,6.54,0,0,0,.61.53l.48.36c.12.11.23.21.3.29a.6.6,0,0,1,.11.58,1,1,0,0,1-.31.58c-.24.23-.61.23-1.1,0a3.69,3.69,0,0,1-.79-.52,11.73,11.73,0,0,1-1.15-1.13L185.93,11c-.2-.22-.39-.44-.56-.65-.37.4-.56.59-.93,1a3,3,0,0,1-.84.59c-.27.11-.46.09-.58,0a.59.59,0,0,1-.05-.71,3.54,3.54,0,0,1,.62-.82c1.24-1.27,1.85-1.92,3.07-3.22a2.54,2.54,0,0,1,.92-.67A.56.56,0,0,1,188.23,6.53Z"/><path class="cls-3" d="M195.06,8c.62.63.53,1.35-.29,2.14a4.58,4.58,0,0,1-1.1.59,1.4,1.4,0,0,1-.67-.37c-.47-.49-.37-1.05.29-1.69a3.44,3.44,0,0,1,.87-.6C194.6,7.88,194.9,7.85,195.06,8ZM188.48.52a.57.57,0,0,1,.11.26l.06.29A10.87,10.87,0,0,0,190,3.33c.2.29.75,1,1.62,2.08a1.48,1.48,0,0,1,.21.28A1.52,1.52,0,0,0,192,6a4.53,4.53,0,0,0,1,.72,3.54,3.54,0,0,1,0,.55,1.83,1.83,0,0,1-.29.36,1.54,1.54,0,0,1-.64.37A2.44,2.44,0,0,1,191,7.29a12.46,12.46,0,0,1-1.4-2,11.82,11.82,0,0,0-1.4-2,5.39,5.39,0,0,0-.75-.61,5,5,0,0,1-.75-.6.75.75,0,0,1-.18-.24,1.8,1.8,0,0,1,.55-1,1.86,1.86,0,0,1,.69-.42A.67.67,0,0,1,188.48.52Z"/></svg>