<svg xmlns="http://www.w3.org/2000/svg" viewBox="0 0 328.6 141.62"><defs><style>.cls-1{fill:#eb5d54;}.cls-2{fill:none;}</style></defs><g id="Слой_2" data-name="Слой 2"><g id="Слой_1-2" data-name="Слой 1"><path class="cls-1" d="M28.4,75.42a1.24,1.24,0,0,1-.44.88,3.47,3.47,0,0,1-1.44.92,1.16,1.16,0,0,1-.64.21,7.79,7.79,0,0,1-1.34.3,5.15,5.15,0,0,1-.9.33l-.7-.06-.68.38-.75-.19H20.7c-.39,0-.71,0-1,0l-.28-.06-.31,0-.54.1h-.77l-.9-.09-.42.15.12.13-1.41-.12-.2,0-1.61-.29-2.27-.35-.75-.21a1.54,1.54,0,0,1-.82.09A2.8,2.8,0,0,1,8.43,77l-.74.12-.4-.33a5.14,5.14,0,0,1-1.93-.51l-.16-.09a3.43,3.43,0,0,1-.66,0L3,75.15l-.7-.23a3.18,3.18,0,0,1-1.15-1,2.07,2.07,0,0,1-.39-1.11,3.32,3.32,0,0,1,.39-1.17L1.92,71l.93.17A1,1,0,0,1,3.74,71c.83.12,1.25.72,1.26,1.81a3.85,3.85,0,0,0-1,.12,2.48,2.48,0,0,1-.58.33v.1l.35.2.47.45,1.52.15,1.3.49,2,.23.75.5.34-.15a2,2,0,0,1,.59.2l1,.24.08.21.63.07c.59-.1.93-.14,1-.14l.47.06.9.1.7.07.62.07.74.08.85-.1.41-.31L19.7,76a7.43,7.43,0,0,1,1.77-.12l.19,0a.79.79,0,0,1,.46-.11.63.63,0,0,1,.27.08l.38-.09v-.25l.81.07a1.27,1.27,0,0,1,.95-.23,1.59,1.59,0,0,1,.86-.37l.29-.36c0-.18-.86-.66-2.53-1.43L22.82,73a5.53,5.53,0,0,1-1.28-.34,3.76,3.76,0,0,1-.5-.07H21a12.28,12.28,0,0,1-1.52-.52,1.89,1.89,0,0,0-.89-.34,2.47,2.47,0,0,0-.46,0l-.77-.08-.12-.1a3.47,3.47,0,0,1-1-.39l-.46.08-1.21-.6-.77-.09-.5-.31-.77-.09L12.41,70l-.62-.08-.54-.57-.27,0a4.07,4.07,0,0,1-1.85-.61l-.08-.07a2.7,2.7,0,0,1-1.24-.85l-.65-.58-.43-.87c-.18-.23-.27-.34-.46-.56.08-.5.12-.75.19-1.26l.92-.74c.15,0,.27-.12.34-.36a2.19,2.19,0,0,0,.38-.11L10,62.68l.53.07a2,2,0,0,0,1.09-.18l.23,0v.07l.37-.24.19,0a7,7,0,0,1,2-.14l.19,0,.34.07.56-.21a3.39,3.39,0,0,1,.6,0l.23,0c.17,0,.48,0,.92,0l1,0,.68,0L20,62a3.59,3.59,0,0,1,.5.52l.82.08a4,4,0,0,1,.83.23l.27,0a3.4,3.4,0,0,1,1.51.45c1.33.39,2,1,2.05,1.85s-.64,1.09-2,1.12l-.31-.4-.4-.16-.44-.17L22,65.48l-.39-.38H21l-.33.28-.93-.62-1,0-1.17-.34a5.47,5.47,0,0,0-1.85.17l-.07,0-.25.08-.17,0-.53-.25-1.06.28-2,.21-.46-.15-.83.33L10,65.13l-.23.26L9,65.72l.07.2.43.4.38.15.61.39,1.19.49.58.1,1,.63.3-.06a4.07,4.07,0,0,1,1.51.67l.11.11h.08l.78.46.26-.19.92.19.15,0,.54,0,.55.4.26,0A5.66,5.66,0,0,1,19.9,70l.39,0a3.3,3.3,0,0,1,1.55.68l.45-.09.35.16.65.06,1.14.72,1.15.19c.2.21.3.32.49.54a7.21,7.21,0,0,1,1.77,1.27A2.42,2.42,0,0,1,28.33,75l.06.19A1.7,1.7,0,0,1,28.4,75.42Z"/><path class="cls-1" d="M43.92,77.28c0,.25-.17.56-.6.92a1.57,1.57,0,0,1-.49.8l-.22,0c-.15.23-.22.35-.36.58l-.69.07-.69.35-.33.55h-.42a4.11,4.11,0,0,1-.68.14l-.21.23h-.35a1.09,1.09,0,0,0-.91.49l-.58-.4-.47,0a2.32,2.32,0,0,1-.87-.2l-.66,0-.32-.17a2.73,2.73,0,0,1-1.94-1v-.09l-.48-.21-.27-.55-.49-.27c0-.19,0-.29,0-.47-.23-.56-.35-.84-.57-1.4,0-.45-.05-.67-.08-1.12l.19-.49-.05-.65.16-.49-.05-.22.24-.35-.07.06a1,1,0,0,1,.15-.59v-.16c-.07-.3-.1-.45-.17-.76a1,1,0,0,1,.51-.9.34.34,0,0,0,0-.19,2.14,2.14,0,0,0-.16-.52,1.93,1.93,0,0,1-.17-.56,1.38,1.38,0,0,1,.18-.77,1.18,1.18,0,0,0,.89.43H33a.92.92,0,0,1,.32-.27A3.26,3.26,0,0,1,34,67.79l.15-.12a2.91,2.91,0,0,1,.17-.71l.31,0,.06-.15.3,0a1.52,1.52,0,0,1,.22-.28,6.89,6.89,0,0,1,.78-.35,1.33,1.33,0,0,1,.42-.39l.36-.1.14-.18a7,7,0,0,1,1.25-.23,1.42,1.42,0,0,1,.57.15l.18,0,.27.14a6,6,0,0,0,.93.5l.67.43v.13a2.08,2.08,0,0,1,1,1.62l-.09.31.2,1-.32.17-.3.8-.66.63v.5a15.14,15.14,0,0,1-2.13,1.07,1.1,1.1,0,0,1-1,.39h-.11l-.69.34-.61,0-.89.27-.71-.32h-.08a6.41,6.41,0,0,0-.09.75l-.29.18v.37l-.19.53c.09.5.14.83.16,1l-.13.09a3.21,3.21,0,0,1,0,.59.44.44,0,0,1,0,.1V77c0,.17.24.31.35.43s.24.42.42.49l.29.21.86.23v.1l.31.07,1.31.07.77-.06.36-.2.23-.06.34-.45.19,0,.93-.21a1,1,0,0,1,.46-.35l.1-.15c.51-.07.78-.27.82-.62a1.87,1.87,0,0,1,1.33-.39h.15A2.35,2.35,0,0,1,43.92,77.28Zm-4.58-9.14a1.68,1.68,0,0,0-.14-.38l-.19,0-.08,0h-.15a.35.35,0,0,1-.14,0,.41.41,0,0,1-.12,0h-.11l-.36.2-.34,0-.18,0-.59.66-.39.23c-.22.34-.32.51-.54.84a3.41,3.41,0,0,1-.33.17,1.38,1.38,0,0,1-.46.89l-.13.21a1.83,1.83,0,0,1,.93-.17l.26-.08.09-.28.53.06.27-.36h.23l.42.14.15-.46h.27l0-.34.48-.08.11-.08.05-.28.44-.58A.83.83,0,0,0,39.34,68.14Z"/><path class="cls-1" d="M58.25,77.37c0,.25-.15.56-.55.94a1.55,1.55,0,0,1-.46.82l-.22,0-.34.6-.67.1-.67.38c-.13.22-.19.33-.31.56h-.42a3.45,3.45,0,0,1-.67.17l-.19.24H53.4a1.12,1.12,0,0,0-.89.53l-.58-.38h-.46a2.29,2.29,0,0,1-.87-.16H50L49.62,81a2.64,2.64,0,0,1-1.95-.93V80l-.48-.19-.29-.53L46.4,79l0-.47-.62-1.37c0-.45-.07-.67-.12-1.12l.18-.49c0-.26,0-.39-.07-.65l.14-.49-.06-.22.22-.36-.07.06a1.08,1.08,0,0,1,.13-.59l0-.16c-.07-.3-.11-.45-.19-.75a1,1,0,0,1,.47-.92.37.37,0,0,0,0-.19,2.62,2.62,0,0,0-.18-.52,2.36,2.36,0,0,1-.19-.55,1.54,1.54,0,0,1,.15-.77,1.21,1.21,0,0,0,.9.39h.11a.87.87,0,0,1,.31-.27,3.3,3.3,0,0,1,.69-1.3l.14-.12a3,3,0,0,1,.15-.72h.29l.06-.16.29-.06a3.36,3.36,0,0,1,.21-.29s.29-.16.76-.38a1.27,1.27,0,0,1,.4-.4l.36-.12.13-.19a6.41,6.41,0,0,1,1.22-.27,1.25,1.25,0,0,1,.57.13l.18,0,.27.13a7.49,7.49,0,0,0,.94.47l.67.4,0,.12a2,2,0,0,1,1,1.58l-.07.32c.09.41.14.61.24,1l-.31.19c-.11.33-.17.49-.28.81s-.37.4-.63.66c0,.2,0,.3,0,.5A15.87,15.87,0,0,1,52.75,73a1.13,1.13,0,0,1-1,.44h-.11l-.67.37h-.6l-.87.3-.71-.29H48.7a7.43,7.43,0,0,0-.07.75l-.28.19v.37l-.17.54c.11.5.17.82.19,1l-.12.09a5.83,5.83,0,0,1,0,.6.23.23,0,0,1,0,.09l0,.1c0,.17.24.3.35.41s.25.41.44.48l.29.19.86.2v.09l.31.06h1.3l.75-.09.36-.21.22-.06c.12-.19.19-.28.32-.47l.18,0,.92-.25a1,1,0,0,1,.45-.37l.09-.15q.73-.14.78-.66a2,2,0,0,1,1.31-.44h.15Q58.19,76.93,58.25,77.37ZM53.4,68.43a1.94,1.94,0,0,0-.15-.37l-.19,0-.07,0h-.15a.4.4,0,0,1-.15,0l-.11,0h-.11l-.35.22-.33,0-.18.06-.56.68c-.15.1-.22.15-.38.24l-.5.87-.32.19a1.36,1.36,0,0,1-.42.89l-.13.22a1.92,1.92,0,0,1,.92-.21l.25-.09.08-.28.53,0,.25-.38h.23l.42.12.14-.46h.26l0-.35.47-.09.1-.09,0-.28.42-.59A.78.78,0,0,0,53.4,68.43Z"/><path class="cls-1" d="M86.44,78.07q.27,1.23-1.35,1.38A1.59,1.59,0,0,1,83.81,79a4.77,4.77,0,0,1-1-1.57L82.75,77a.4.4,0,0,0,.08-.32.48.48,0,0,0-.07-.15l-.64-.6c.11-.25.17-.37.29-.62l-.32-.63.12-.38c0-.16,0-.24-.08-.4s0-.22-.08-.37-.13-.33-.22-.55l.06-.28-.2-1-.25-1.33-.37-1,.11-.38-.4-.75-.25.24-.76.34-.89,1.26h-.45l-.5.94-.05.38-.37.18-.33.55-.13.36c0,.44,0,.66,0,1.11l-.61.72-.08.44-.36.28c0,.3,0,.44,0,.74l-.72.61c0,.46.05.68.09,1.14l-.34,0-.08.19c-.2.4-.3.6-.49,1l-.54.6L73.4,80l-.63-.12-.49,0c-.22-.18-.33-.28-.54-.47-.25-.43-.37-.65-.61-1.09-.12-.65-.17-1-.28-1.64-.09-.2-.13-.31-.21-.52s0-.37,0-.62c-.1-.58-.15-.87-.24-1.45l.24-.08-.2-2.14v-.4l-.1-.65.15-.1c0-.4,0-.6,0-1l.08-.35L70.35,69l.09-.16-.09-.09c0-.35,0-.52,0-.87l-.33-.2c.07-.18.11-.27.19-.45-.07-.36-.11-.54-.17-.89s-.31-.53-.51-.88l.21-.29c-.15-.33-.22-.5-.37-.82s0-.3-.08-.5l-.14-.21-.32-1-.25-.46-.67-.87.34-.45.28-.54.32,0a1.59,1.59,0,0,1,1.25.44l.55.32.3.54.61.38-.08.44.39.63v.12l.15,1,.25,1.36.4.85-.13.38c.07.2.1.31.16.52l-.11.44.23.73c0,.25,0,.38,0,.63l0,.12c.13.75.19,1.13.32,1.88,0,.17,0,.26.07.43l-.18.23c0,.41,0,.62.06,1l-.07.47.33.82-.14.26c0,.25.06.37.11.62.26-.08.37-.21.34-.4l.25-.26c.08-.17.12-.25.19-.42s0-.35,0-.59l.32-.52.12-.63.42-.52c0-.24,0-.36,0-.59l.34,0,0-.28,0-.37.47-.25,0-.24.36-.09c0-.2,0-.3,0-.49L76,69l.61-.29.14-.15-.13-.3.31-.12c.07-.21.1-.32.17-.54l.43,0,.37-.24a1,1,0,0,1,0-.32l.37-.18a2.84,2.84,0,0,1,1.14-.65v-.06a4,4,0,0,1,1.23-.5,1.5,1.5,0,0,1,1,.35.81.81,0,0,1,.59.42l.36.15c.07.17.11.26.19.42l.6.67c.19,1,.29,1.47.48,2.45.08.43.13.65.21,1.08l.24.26c.18.91.27,1.36.46,2.27l-.11.41c.05.25.08.37.13.62l.32.65L85,76a4.86,4.86,0,0,1,.36.75l.5.3.05.25.17.07A2.93,2.93,0,0,1,86.44,78.07Z"/><path class="cls-1" d="M101.67,69.23l-.08.58a6.35,6.35,0,0,1,.2,1.26l-.14.33.08.34-.13.24v.44l-.31.39-.07.79-.26.13-.07.36-.38.27c-.06.22-.1.33-.16.55l-.39.25.05.37-.64.3a1.8,1.8,0,0,1-1,.86l-.13,0a2.1,2.1,0,0,1-1.21.81,3.16,3.16,0,0,1-.8.29l-.31.26-.35.13-.41.37-.48.06-.49.15-.68-.14-1.61.09-.72-.64-1-.62.08-.51-.79-1,.1-.42c-.11-.28-.16-.43-.27-.72V74.4c-.06-.28-.11-.49-.13-.61a.91.91,0,0,1,.19-.9,2.74,2.74,0,0,1,.27-1.06l.19,0-.15-.2v-.44l-.1-.46a1.27,1.27,0,0,0,.25-.4l-.2-.42,0-.12a1.58,1.58,0,0,0,.06-.91l.57-1,.22-.21-.07-.12.15,0L91,67c-.05-.28-.07-.42-.12-.7l.84-.38a1.2,1.2,0,0,0,.45-1l.46,0a1.44,1.44,0,0,1,.67-.27,1.47,1.47,0,0,1,.63.05l.4,0,.86-.42.58.33.44.17.28,0,.59.17.29,0a12.44,12.44,0,0,1,1.29.86l.11.14.27.09,1,.71c.4.54.6.8,1,1.33l.08.31Zm-2.19,1-.08-.14a.86.86,0,0,1-.39-.42l.07-.16L98.62,69c0-.23,0-.35-.07-.58l-.17-.14c-.36-.16-.57-.3-.62-.41a.66.66,0,0,1-.46-.57h-.22l-.57-.55-.37-.17-.8-.15-.3,0a.36.36,0,0,1-.32-.08l-.56.75c-.11.36-.17.54-.28.91l-.68.42,0,.35-.32.19c0,.32,0,.48,0,.81l-.4.23a2.62,2.62,0,0,0,0,.8c-.19.21-.28.32-.48.52l.21.08a.72.72,0,0,1-.23.67,4.15,4.15,0,0,1-.19.65l.06.24,0,.12.08.37c-.08.34-.13.52-.21.86l.1.14c.08.34.12.51.19.85l0,.45c.06.16.08.25.14.42l.42.35.55.1.19,0,.3,0,1-.11.08-.32.14,0c.15,0,.24,0,.28.06l.31-.13.31.05.41-.33,0-.1.32-.11a2.32,2.32,0,0,1,1-.82l0-.17.63-.52.28-.54.52-.32v-.16l.11-.36-.1-.39.36-.37.1-.23.13-.2a2.34,2.34,0,0,1-.27-.5,1,1,0,0,1,.08-.61Z"/><path class="cls-1" d="M125.06,59.56v.61c.06.12.09.17.16.29l0,1.26c0,.17,0,.26.06.44l-.35.55v.61c-.1.23-.14.34-.24.56-.09.47-.13.71-.22,1.18s-.22.65-.37,1.09l-.62,1.5,0,.42-.28.92c-.11.46-.16.7-.27,1.16L122.28,72c0,.31,0,.46,0,.76l-.35.81-1.16-.09-.7-.18-1-1.29-1-.88-.08-.3-.68-.76-.23-.14c-.9-.94-1.35-1.41-2.24-2.36l-.64-.55c-.1.23-.15.35-.24.58l-.46.5c-.22.44-.33.66-.54,1.1l-.43.61-.1.84-.56,1v.29l-.27,1,.12.45c-.09.2-.14.29-.24.49s0,.25.09.42l-.34.16-.6.82.13-.08a2.68,2.68,0,0,1-.91.4l-.32-.2-.59-.09-.1-.33-.28-.21-.44-.78-.43-.49c0-.16-.06-.24-.11-.4l-.06-.11-.89-1.21c-.14-.32-.21-.48-.36-.8l-.44-.27,0-.41-.55-.67-.07-.27-.45-.62-.65-.5c0-.27,0-.41-.09-.68l-.09-.21-.59-.72c-.07-.19-.11-.29-.19-.48l-.29-.27a2.9,2.9,0,0,1-.46-.56l-.92-1.21.37-.62a1.07,1.07,0,0,1,.78-.56l.71-.2.32.27.5.11.45.5c.14.06.2.1.34.17s0,.3,0,.5l.22.28,0,.29.47.43.05.46c.32.52.48.78.81,1.29v.35l.4.78c.3.36.45.53.76.88l.52,1.11.46.31c.08.29.12.43.19.72s.26.35.43.59l.11.23.42-.35.52-1.25c0-.23.07-.34.11-.56l.17-.47a.6.6,0,0,1,0-.48l.21,0c0-.23,0-.34,0-.56l.37-.13a.55.55,0,0,1,.22-.42v-.06a.42.42,0,0,1,.11-.39l-.13-.2.16-.09-.08-.18a1.93,1.93,0,0,1,.51-.84c-.07-.24-.1-.36-.17-.61l.43-.32.11-.12.06-.07a1.53,1.53,0,0,1-.36-.63,1.39,1.39,0,0,1,.28-1.15,2,2,0,0,1,.73-.26,2.08,2.08,0,0,1,.43-.05l.8.39.47.39c.17.27.25.41.41.68l.45.42,0,.34.43.62.07.27.86.78,0,.09.17.06,1.12,1.31.15.38.45.26,1.28,1.39.11-.3.3-1.23.32-.35.05-.69.32-.22c0-.18-.08-.27-.14-.45a3.44,3.44,0,0,1,.47-.41c.13-.09.18-.15.17-.19l-.23-.62.31-.45.14-.12c.12-.35.18-.52.29-.86v-.09a1.62,1.62,0,0,1,.23-.84l-.17-.31c.17-.32.26-.47.42-.79s.07-.43.12-.72A4.39,4.39,0,0,1,122,60c-.19-.61.08-1,.78-1.27l1,0,.06-.27.32.22.41.13v.35Z"/><path class="cls-1" d="M147.12,62.25a.9.9,0,0,1,0,.92l-.13.17v.46l-.49.3a1.62,1.62,0,0,1-.44.93l-.27.17c-.12.22-.18.32-.29.54l-.38.2c0,.39-.29.67-.79.83,0,.07-.08.22-.17.44a2.67,2.67,0,0,1-.94.64l-.16.08-.15.32-.69.19-.42.5-1.75-.5-1.07-1L138.47,66l-.26-.32c-.21-1.08-.31-1.62-.5-2.69l.09-.16a4.42,4.42,0,0,1-.4-.82,6,6,0,0,1-.17-1.14c0-.29,0-.43-.07-.72a1.23,1.23,0,0,0-.4-.31v-.61l-.17-.7,0-.1a2.12,2.12,0,0,1-.37-.55.48.48,0,0,0,0-.18.42.42,0,0,0,0-.17,2.08,2.08,0,0,1-.27-.47c-.16-.48.07-.77.69-.89l.4-.1a2.6,2.6,0,0,1,.45-.28,1,1,0,0,1,1.13.41l0,.11a2.12,2.12,0,0,1,.37.64,1,1,0,0,1,.07.4c.11.61.16.92.28,1.53l.38.35a1.29,1.29,0,0,1-.08,1c.11.12.16.19.26.31,0,.49,0,.74,0,1.23a7.21,7.21,0,0,1,.23,1.16c.1.3.16.44.26.74l-.06.46.14.28.18.7c.1.2.16.3.26.51l.64.21.39-.17,0-.11.29,0,.4-.24.26-.42.07-.22.23-.09v-.17l.06-.14.25.06.23-.39.22,0v-.22l.07,0v-.26l.26-.2.55-.45a3,3,0,0,1,1.36-.9l.13,0A1.17,1.17,0,0,1,147.12,62.25Zm-9-14.54q.12.34-.3.78l0,.06a2.15,2.15,0,0,1-.83,1.05l-.32.66-.2.47-.71.37c-.07.2-.11.3-.19.51l-.45.37-.63.91-.68-.3c-.05-.31-.08-.46-.14-.77s.12-.37.19-.62a.93.93,0,0,1,.3-.84l0-.12.16-.17c0-.18-.06-.27-.11-.45l.49-.26-.09-.26.38-.16a1.23,1.23,0,0,1,.28-1l.08-.09.14-.23,0-.77C137.07,46.78,138,47.06,138.16,47.71Z"/><path class="cls-1" d="M156.82,52.34c.07.17-.06.4-.39.68a1.09,1.09,0,0,1-.38.42,3.51,3.51,0,0,0-.54.5l-.77,0a2.29,2.29,0,0,1-1.21.78l-.43,0-.22.29-.89.28c-.17.21-.25.32-.43.52a1.74,1.74,0,0,0-.74.1,2.31,2.31,0,0,1-.42.26,1,1,0,0,1-.39,0l.32,1.14.32.81c.16.4.24.6.39,1l.45,1.09.31.49.15.41.81.73a.27.27,0,0,0,0,.23q.09.21.87.09c.09.13.13.2.21.33h.27l.5.1.34.09a3.17,3.17,0,0,1,.45-.2,2.26,2.26,0,0,1,.64-.11,3.49,3.49,0,0,0,.41-.58.89.89,0,0,1,.47-.42l.1,0,.1,0a1.4,1.4,0,0,1,.79-1,1.87,1.87,0,0,1,1.32,0l.09.2a1.65,1.65,0,0,1-.29,1.5,2.37,2.37,0,0,1-.95,1.19c-.1.18-.16.27-.27.45l-.44.14-.7.42a4.11,4.11,0,0,1-.76.3,1.74,1.74,0,0,1-.62.07l-.44.14-1.41-.19h-.34L152,64l-.56-.25-1.32-1.23-.8-1.28,0-.38-.43-.23v-.45l-.41-.59.15-.28-.07-.39-.24-.32-.1-.55-.34-.42.11-.19-.18-.47-.26,0-.59.3-.73-.17-.1,0a1,1,0,0,1-1.35-.66l0-.09-.6-.44.43-.72.88-.12.41-.18.68,0,.7-.21c-.09-.23-.14-.35-.22-.58-.3-.27-.44-.41-.73-.69l.35-.33-.33-.39-.3-.91-.4-.3a1.18,1.18,0,0,1-.44-.51.84.84,0,0,1,0-.58l0-.43.18-.31a9.6,9.6,0,0,1,1.12-.5,1.09,1.09,0,0,1,1.45.51l0,.17a1.08,1.08,0,0,1,.38.44.9.9,0,0,1,0,.16v.19l0,.22.28.34,0,.15.22.39c-.07.18-.1.26-.16.44l.38.53c.06.3.08.45.14.75l.36.18c0,.24,0,.36-.06.6l1-.45,1.87-.42,1.36-.66.5-.13.15-.08,1.28-.41Q156.57,51.71,156.82,52.34Z"/><path class="cls-1" d="M185.68,39.65l.11.6.21.25.18,1.25.14.42c-.08.24-.13.36-.22.6l.12.6c0,.24-.07.36-.11.6v1.19c-.05.46-.08.68-.14,1.14l-.3,1.58,0,.43c0,.38,0,.57-.09.95s0,.72,0,1.2c-.07.76-.11,1.14-.18,1.9l.15.74c-.08.34-.11.51-.19.85l-1.1.13-.69,0-1.18-1.09-1.11-.68-.13-.28-.78-.61-.24-.11c-1-.76-1.53-1.14-2.54-1.91l-.69-.42c0,.25-.08.37-.12.62s-.2.34-.34.56l-.3,1.19c-.12.27-.18.41-.29.68s0,.51.06.84l-.35,1,.06.28c0,.42,0,.63-.07,1l.2.42c-.05.21-.08.32-.14.52l.16.41-.29.21c-.16.37-.24.55-.41.92l.11-.1a2.57,2.57,0,0,1-.78.56l-.33-.14-.58,0-.14-.31-.3-.15-.56-.69-.5-.41-.17-.36-.08-.1-1-1-.48-.72-.47-.19-.1-.39L169,53.1l-.12-.25-.54-.53-.69-.37c-.09-.26-.13-.39-.21-.65l-.13-.19-.68-.61c-.1-.17-.16-.25-.26-.43l-.32-.21a3.11,3.11,0,0,1-.54-.46l-1.07-1c.09-.27.13-.4.23-.67s.24-.49.62-.69l.63-.33.35.2.49,0,.51.41.34.1.11.49.25.24,0,.29.52.33c.05.18.07.27.13.45l1,1.12.07.34.52.7.87.72.69,1,.49.21c.13.27.19.41.31.68l.51.49.14.22.34-.43.25-1.32v-.57c0-.2,0-.29.07-.49a.65.65,0,0,1-.07-.47l.19-.08c0-.21-.08-.32-.14-.54l.33-.19a.52.52,0,0,1,.12-.45l0-.06a.5.5,0,0,1,0-.41l-.15-.17.13-.12-.11-.16a2,2,0,0,1,.32-.92l-.27-.56.34-.4.09-.14,0-.08a1.4,1.4,0,0,1-.44-.55,1.46,1.46,0,0,1,0-1.19A2,2,0,0,1,175,45a2.48,2.48,0,0,1,.39-.13l.82.24.52.29.5.6.5.33.09.33.51.53.13.25.94.61,0,.09.17,0c.51.43.77.65,1.29,1.07l.21.35.47.18L183,50.91l.05-.31.05-1.27c.1-.16.14-.24.23-.4l-.07-.68.25-.28c-.08-.16-.12-.25-.21-.41a3.16,3.16,0,0,1,.37-.5c.1-.1.14-.18.12-.22l-.33-.56.2-.49.11-.15c.05-.36.07-.54.12-.9l0-.09a1.65,1.65,0,0,1,.06-.86l-.22-.28.25-.85c0-.29,0-.43,0-.73a4.41,4.41,0,0,1-1-1.26c-.29-.57-.12-1,.5-1.39l.93-.15v-.27l.35.16.4.06.06.34Z"/><path class="cls-1" d="M200.22,38.66l.1.57a7.3,7.3,0,0,1,.54,1.15l0,.36.17.3-.05.26.13.42-.17.46.18.78-.2.2.05.36-.26.37c0,.23,0,.34,0,.57l-.27.35.15.33-.48.48a1.79,1.79,0,0,1-.63,1.1l-.11.09a2,2,0,0,1-.83,1.11,2.59,2.59,0,0,1-.62.51c-.09.13-.13.2-.21.33l-.27.23-.25.47-.41.19-.39.28-.64.06-1.4.55-.82-.41-1-.32-.08-.5-1-.72,0-.43c-.18-.24-.27-.36-.44-.61l-.13-.45-.29-.55a1,1,0,0,1-.09-.91,3.27,3.27,0,0,1-.06-1.1l.16-.07-.2-.15-.11-.42c-.08-.17-.13-.25-.21-.42a1.57,1.57,0,0,0,.1-.45l-.3-.34,0-.11a1.7,1.7,0,0,0-.21-.89c.09-.44.14-.66.23-1.09l.13-.27-.09-.09.12-.06c.08-.27.13-.4.21-.67l-.3-.65.63-.6a1.25,1.25,0,0,0,.11-1.07L191,37a1.43,1.43,0,0,1,.52-.45,1.4,1.4,0,0,1,.57-.13l.34-.13.64-.65.61.16.43,0,.24-.12h.57l.24-.11a12,12,0,0,1,1.39.45l.13.11h.27l1,.42,1.28,1,.15.27C199.74,38.17,199.9,38.34,200.22,38.66Zm-1.63,1.62-.11-.12a.82.82,0,0,1-.47-.28l0-.18-.56-.38-.23-.54-.2-.08a1.12,1.12,0,0,1-.66-.23c-.22,0-.41-.12-.57-.41l-.19.06-.66-.36-.38-.06-.75.08-.27.07a.29.29,0,0,1-.3,0c-.12.35-.17.53-.29.88s0,.57,0,1l-.48.6.07.34-.23.28.25.76c-.11.13-.16.2-.28.33a2.61,2.61,0,0,0,.26.76c-.11.26-.16.39-.27.64h.2a.77.77,0,0,1,0,.71,4.75,4.75,0,0,1,0,.67l.12.22.05.11.18.32c0,.36,0,.54.06.89l.13.11.42.76.08.43c.09.15.14.22.24.37l.47.22.51-.07H195l.25-.12.81-.38,0-.33.12-.06c.13-.06.22-.06.27,0l.23-.21.3,0,.26-.43,0-.12.25-.18a2.33,2.33,0,0,1,.68-1.09l0-.16.4-.68c0-.24.06-.36.09-.6l.37-.46,0-.15v-.37l-.2-.35.22-.45v-.25l.06-.23a2.07,2.07,0,0,1-.38-.4,1,1,0,0,1-.1-.6Z"/><path class="cls-1" d="M211.41,27.92l.3,1-1,.72c-.14.27-.22.4-.37.67l-.47.05-.28.42-.34.4c-.08.13-.11.2-.19.34l.06.1-.44.61c-.05.28-.07.42-.12.7l-.21.11A3.51,3.51,0,0,1,208,34c0,.33,0,.5,0,.83l-.12.14c0,.17.09.42.18.74l-.33.35v.42c0,.15-.05.23-.08.39l.18.43-.19.2.24.4,0,.13.39.18c-.14.16-.21.24-.36.39l.15.38c0,.24,0,.37,0,.61l.39.25-.1.68a2.49,2.49,0,0,1,.29.34l.06.11a.53.53,0,0,0,0,.15l.21.2.8.21c0,.32,0,.49,0,.81s-.13.26-.22.43c-.24.33-.37.49-.62.82l-1.37.19-.37-.62-.26-.17-.15-.45a6,6,0,0,1-.45-.61s-.05-.14-.09-.22a2,2,0,0,0-.11-.19l-.19-.25a.71.71,0,0,1-.47-.32.9.9,0,0,1-.07-.59c0-.09-.23-.34-.54-.77l.05-.12-.3-.3-.13-.35-.17-.16-.27-.66-.33-.18-.06-.35-.32-.29a2.22,2.22,0,0,0-.22-.44,1,1,0,0,0-.43-.48l0-.22-.4-.42-.47-.21-.1-.51-.21-.1-.49-.58-.12-.21a.72.72,0,0,1-.38-.33c-.2-.36.06-.88.78-1.58l.81-.24.44.43.5.19.33.77c.26.33.56.68.89,1.07l.34.38a1.34,1.34,0,0,1,.23.26.64.64,0,0,1,.06.43l.4.48.29.62,0,.33.15.06.22.23a.84.84,0,0,0,0-.5l-.12-.47a.58.58,0,0,1,.13-.37l-.12-.47.29-.43-.13-.35c0-.19.08-.29.13-.49v-.52a2,2,0,0,1,.45-.87v-.11c0-.21,0-.31,0-.51l.26-.21,0-.13,0-.22.22-.33.07-.28.19-.07.17-.23,0-.22.25-.35.32-.56.56-.59a4.82,4.82,0,0,1,.41-.29v0a0,0,0,0,0,0,0h0a.82.82,0,0,0,.28-.3,1,1,0,0,1,.34-.33l.43-.17A1,1,0,0,1,211.41,27.92Z"/><path class="cls-1" d="M233.54,25.29l0,.39a1.54,1.54,0,0,1,.25,1.49.57.57,0,0,1,.1.53l.06.36c-.09.19-.13.28-.21.47l0,.38-.76,1.26-.45.47-.79.57-.59.12-.37.23h-.53l-.31.15-1.52.19-1.56-.11-2.09-.18-1.16-.39-.78-.07-.2-.13-.45-.13c-.44-.13-.93-.24-1.48-.35l-.59.14L219,30l-.16-.44a1.15,1.15,0,0,1,.3-1.47l.65-.17.73.14h.67l.46-.28h.17a2.66,2.66,0,0,1,.38-.19,6.47,6.47,0,0,1,.81-.89l.22-.2-.06-.44.68-.42a1.46,1.46,0,0,1,.48-.65l.06,0c0-.16-.05-.35-.08-.58.16-.22.23-.33.38-.56s.05-.2.09-.34c0-.36,0-.54,0-.9l.2-.12a5.63,5.63,0,0,0-.27-.85l.15-.31-.27,0-.18-.51a.69.69,0,0,0-.43,0c-.1.13-.16.19-.26.31l-.25-.14-.35.07-.15-.05c-.3.14-.72.36-1.26.64l0-.05-.17.1-.33.21a2.8,2.8,0,0,0-.82,1l-.4.24A5,5,0,0,0,219,24.4l-.5.55c-.18.47-.27.7-.46,1.17s-.2.74-.34,1.23l.05.12c0,.47,0,.7,0,1.17l.15.59-.07.12.06.1a3.33,3.33,0,0,0,0,.37l-.13.18.11,0v.18a.3.3,0,0,0,0,.15c.06.09.21.12.27.17a.81.81,0,0,1,.19.85.5.5,0,0,0,.09.24l.08.13a1.44,1.44,0,0,1,.27.84.83.83,0,0,0,0,.29l.25.38c.14.21.2.32.34.52l.27.42a2.5,2.5,0,0,0,.29.87l.19.28a.93.93,0,0,1,0,.8,1.1,1.1,0,0,1-.46.69,1.38,1.38,0,0,1-1.11,0l-.84-.63-.3-.46-.66-1-.17-.26-.53-.83-.1-.41-.19-.28c-.22-.35-.42-.72-.61-1.09l-.3-.6-.28-.44-.12-.25-.47-.74V29.6l-.31-.25c-.18-.37-.26-.56-.43-.93l-.58-.92-.44-.46v-.27l-.1-.09-1-1.35-.75-.74-.14-.24c-.13-.41-.2-.61-.32-1l-.33-.28-.44-.6-.39-.53q-.56-.92.93-1.83l.42-.67.7,1.34c.21.28.32.41.54.69l.3.86.57.81.41.4c.08.2.12.3.19.5l.48.57c.1.23.15.35.24.58l.44.5.08.13.28.19c.1.34.15.51.26.85l.1.16c.2.15.31.22.51.38-.06.08,0,.24.12.46s.19.41.31.67l.2.22c0-.3,0-.45,0-.75s-.12-.42-.21-.7,0-.5,0-.83a.78.78,0,0,1-.1-.58c.12-.08.19-.11.31-.18l-.05-.58.46-.67a2.69,2.69,0,0,1,.57-1.05l.09-.23.31-.47.32-.3a5.93,5.93,0,0,1,2.13-2.14c.91-.47,1.36-.7,2.26-1.18l.6,0,.23-.11.78.17-.07-.17a1.26,1.26,0,0,1,.85.15q.12-.11.09-.09a.47.47,0,0,1,.27-.07l1.33.73.06.15a1.27,1.27,0,0,1,.46.37,1.31,1.31,0,0,1,.18.9l.11.15c.1.48.16.72.26,1.19s0,.66-.07,1.11l-.15.13c0,.24,0,.37-.06.61a.82.82,0,0,1-.58.15l.28.41c0,.11-.08.16-.14.27s0,.23,0,.38l-.42.44a.61.61,0,0,0-.1.39,16.55,16.55,0,0,1-1.71,2,2.3,2.3,0,0,1-.36.16,4.68,4.68,0,0,0-.44.21.69.69,0,0,0-.15.13,6,6,0,0,0,.69.37l.52,0,1.07.5,1.06-.08.13.07.34,0,.64.15,1,.08,1.15-.24.6-.2.35-.26L231,29a2.82,2.82,0,0,0,.79-1.09c0-.43,0-.65-.08-1.08,0-.2,0-.29.07-.49l-.16-.56a2.92,2.92,0,0,1,.58-.56A1,1,0,0,1,233.54,25.29Z"/><path class="cls-1" d="M244.75,17.34c0,.23,0,.35-.06.57l.2.85-.1.3c0,.19.05.28.08.47l-.51.44-.1.56-.55.39c-.05.19-.08.28-.14.47l-.36.14-.3.32.16.2-1.08.63c-.18.12-.27.18-.44.31l-.2.4-.39,0,.42-.33-1.27,1-.11,0-.25.12c-.1.16-.14.25-.23.41a3.81,3.81,0,0,0-.72.27,7.29,7.29,0,0,0-.84.52l-.22.14a1.46,1.46,0,0,0-.48.21,1.52,1.52,0,0,0-.39.37l-.56,0-.26.1a1.81,1.81,0,0,1-.36.13c-.74.39-1.47.1-2.16-.86l-.17-.22c.12-.28.17-.42.28-.7s.31-.39.51-.66l.67-.1.39-.26,0,.07a1.1,1.1,0,0,1,.74.11l.24-.13.24.33.42-.17H237c1.36-1,2-1.55,3.39-2.6l.75-.71.08-.05,0-.17.35-.31v-.11a4.27,4.27,0,0,0,.83-1l-.07-.14a.93.93,0,0,1-.24-.09l-.11.12h-.55l-.24.17-.27-.08v-.15l-.26.25-.37,0-.27.19a2.7,2.7,0,0,1-.81.36l-.24.17-.25.06-.29.38L238,20,238,20h-.58l-1.07.27h-.43l-1.17.52-.24-.1-1.09.06-1-.55-.63-.21-1.05-1.23v-.23a2,2,0,0,1-.28-1.29.75.75,0,0,0,0-.85l.36-.34a1.18,1.18,0,0,1,.16-.67c.08-.22.11-.34.19-.57l1.26-1.73.24-.28.49-.41.72-.82,1.74-1.06.14.09a1.77,1.77,0,0,1,.82,0l.09.13.61-.05.26.72.11.26a.84.84,0,0,1-.28,1.14,1,1,0,0,1-1,.08l-.05-.08-.31.22-.31.35h-.53l-.09.26a1.3,1.3,0,0,0-.5.65,1.38,1.38,0,0,0-.55.84l-.36.23c0,.13-.08.19-.13.31l-.32.33,0,.09-.11.18c0,.16-.05.24-.08.39l-.06.08c0,.21,0,.31,0,.51l-.19.35a3.34,3.34,0,0,0,.26.65,1.36,1.36,0,0,0,.44.4,1.08,1.08,0,0,0,.54,0l.09.12.48-.06a3,3,0,0,1,.9-.12l.54-.37.55.05.69-.35.35,0,1.26-.46.34.17,0-.25a2.87,2.87,0,0,1,1.17-.36l.54-.27.19.14.43-.31,1.06-.14a1.79,1.79,0,0,0,1,.17l.43,0,.15.34a1.17,1.17,0,0,1,.59.38Z"/><path class="cls-1" d="M243.6,3.65l0,.14.24.48-.15.11.12.33.1-.07a3,3,0,0,0,.48.33l.07.3a1.78,1.78,0,0,1,.31.3,1.76,1.76,0,0,1,.18.32l.12.26,1.47,2,.33.13.39.7.52.38c0,.15,0,.22,0,.37a1.93,1.93,0,0,1,.48.41l.48.3-.1.19.1.12a.66.66,0,0,1,.17.37l.14.17a.88.88,0,0,1-.22,1.21c-.52.38-1,.27-1.54-.36l-.37-.46-.47-.49-.57-.35c0-.15,0-.22-.06-.38l-.35-.12c-.13-.3-.2-.45-.34-.75l-.34.1-.33-.63-.17-.22-.35-.44-.09-.12L243.67,8a2.49,2.49,0,0,1-.22-.42h-.16l-.11-.15-.37-.11V6.74l-.31-.19-.12-.3-.26-.34a1.66,1.66,0,0,1-.27-.19.48.48,0,0,1-.09-.27l-.13-.17a1,1,0,0,1-.18-.18L241.32,5l-.11-.15-.07-.09-.23-.3h-.45l-.78-1.22.81-.45.34-.4L242,2l.4.25a4.27,4.27,0,0,1,.35.4.83.83,0,0,1,.15.24l0,.2v.11Zm8.76,9.78.2.4a2.74,2.74,0,0,0,.19.33l-.3,1-.59.17-.27.47-.53.09-.56.42-1.06-.68-.28-.75c.05-.26.08-.38.13-.63l.08-.11c0-.17,0-.26.07-.43a6.66,6.66,0,0,1,.68-.32,2.89,2.89,0,0,1,.71-.33,1.36,1.36,0,0,1-.11.28l.61-.34.44.18Z"/><path class="cls-2" d="M289.52,67.66c-6.09-9.74-20-8.66-27.33-1a27.33,27.33,0,0,0-7,15.17,31.78,31.78,0,0,0,2,17.33c3.09,6.74,9.37,10.5,16.31,11.9a67.54,67.54,0,0,0,9.56-9.64C290.41,92.3,296.38,78.61,289.52,67.66Z"/><path class="cls-2" d="M308.37,23.84a7.1,7.1,0,0,1,.79-1.15,4.45,4.45,0,0,1,.59-.56c-.46,0-.92-.07-1.38-.08Z"/><path class="cls-1" d="M327.44,22.77a36.12,36.12,0,0,0-21.57-5.67,2.55,2.55,0,0,0-2.5,2.5q0,9.95,0,19.89c0,2.74,4.36,3.5,4.91.66a61.4,61.4,0,0,1,3-10.47c.29-.74.59-1.47.92-2.19.09-.2.23-.43.35-.67l0,0a21.35,21.35,0,0,1,1.37,2.75,81.05,81.05,0,0,1,5.71,20.16c2.13,13,1.18,26.78-4.79,38.64-5.48,10.9-14.87,19.5-26.91,22.36a34.12,34.12,0,0,1-7.54.9c1.65-1.56,3.23-3.19,4.72-4.91,9.11-10.48,16.21-25.44,10.05-39.12A20.13,20.13,0,0,0,280.76,56a24.67,24.67,0,0,0-18,3.68C251.36,67.23,248,82.81,250.85,95.55a25.48,25.48,0,0,0,11.88,16.69,31.4,31.4,0,0,0,5.82,2.62,108.06,108.06,0,0,1-15.16,8.88,129.09,129.09,0,0,1-76.54,11.31c-3.26-.52-6.5-1.18-9.71-2s-4.46,4.06-1.33,4.82A132.88,132.88,0,0,0,209,141.08a135.54,135.54,0,0,0,42.39-10.93,109.57,109.57,0,0,0,23.51-13.78,37.4,37.4,0,0,0,7.62.24c13.91-1,26.07-9,33.65-20.53,8-12.22,10.52-27.26,9.06-41.64a93.66,93.66,0,0,0-5.22-23c-.67-1.82-1.43-3.63-2.28-5.38A13.84,13.84,0,0,0,316,23.14a31.6,31.6,0,0,1,8.9,3.95C327.63,28.84,330.14,24.51,327.44,22.77Zm-18.28-.08a7.1,7.1,0,0,0-.79,1.15V22.05c.46,0,.92.05,1.38.08A4.45,4.45,0,0,0,309.16,22.69ZM273.56,111c-6.94-1.4-13.22-5.16-16.31-11.9a31.78,31.78,0,0,1-2-17.33,27.33,27.33,0,0,1,7-15.17c7.37-7.62,21.24-8.7,27.33,1,6.86,11,.89,24.64-6.4,33.72A67.54,67.54,0,0,1,273.56,111Z"/></g></g></svg>