<svg xmlns="http://www.w3.org/2000/svg" viewBox="0 0 1468 897.18"><defs><style>.cls-1{isolation:isolate;}.cls-14,.cls-2{fill:#064963;}.cls-2{opacity:0.09;}.cls-3{fill:#fb5d51;}.cls-4{fill:#013d61;}.cls-5{fill:#90d8d4;}.cls-12,.cls-6{fill:#e69dc4;}.cls-11,.cls-6{mix-blend-mode:color-burn;opacity:0.76;}.cls-7{fill:#003956;}.cls-8{fill:#2cc1bd;}.cls-9{fill:#6fbcb6;}.cls-10{fill:#13a29c;}.cls-13{fill:#eda283;}.cls-15{fill:#fff;}</style></defs><g class="cls-1"><g id="Слой_2" data-name="Слой 2"><g id="Layer_1" data-name="Layer 1"><path class="cls-2" d="M433.82,158.9c4.79,28.62,31.93,48.57,58.45,61.13,104.42,49.42,236.25,34.54,327-36.93,16.18-12.74,31.54-27.73,39.06-46.9C895.65,41.06,722.83,1.13,661.57,0c-77.93-1.38-155.34,32.82-204.3,94-14.28,17.84-26.52,39.64-23.81,62.33C433.56,157.22,433.68,158.06,433.82,158.9Z"/><path class="cls-2" d="M104.86,296.61C-39.06,437.77,15.34,776.66,175.7,869.88c60.76,35.31,110.35,20.16,237.05,8.06,480.11-45.85,611,90.32,806.74-36.16C1250.14,822,1380.29,732.5,1403.16,583c32.78-214.37-171.68-437.23-351-456.45-158.71-17-177.63,169.51-374.64,183-183.94,12.6-287.61-133.38-471.52-71C181.07,247,141.25,260.92,104.86,296.61Z"/><path class="cls-3" d="M173.94,761.6l.14-2.74-9.68,1.38-9.68-1.38,0,2.77-51,7.27s-1,89.52,49.41,101h22.6c50.47-11.46,49.41-101,49.41-101Z"/><ellipse class="cls-4" cx="164.4" cy="768.9" rx="60.71" ry="15.88"/><path class="cls-3" d="M229.57,781.36c-13.45,0-24.4,12.57-24.4,28s11,28.13,24.4,28.13,24.52-12.57,24.52-28.13S243.13,781.36,229.57,781.36Zm-4.48,43.32c-7.35,0-13.32-6.85-13.32-15.31s6-15.31,13.32-15.31,13.31,6.84,13.31,15.31S232.43,824.68,225.09,824.68Z"/><circle class="cls-5" cx="145.81" cy="335.19" r="145.81"/><path class="cls-6" d="M242.7,252.25A127.77,127.77,0,0,1,18,354.83,127.79,127.79,0,1,0,242.7,252.25Z"/><polygon class="cls-4" points="145.81 216.53 156.33 340.72 157.33 352.57 145.81 351.24 55.03 340.72 145.81 330.2 135.3 340.72 145.81 216.53"/><circle class="cls-4" cx="145.81" cy="340.72" r="19.07" transform="translate(-219.42 403.64) rotate(-76.61)"/><path class="cls-7" d="M1307.91,445h33.85a29.07,29.07,0,0,0,29.14-29v-6.07a29.1,29.1,0,0,0-29.14-29.14h-33.85a29,29,0,0,1,29,29.14V416A29,29,0,0,1,1307.91,445Z"/><path class="cls-4" d="M1092.9,380.78V445h215a29,29,0,0,0,29-29v-6.07a29,29,0,0,0-29-29.14Z"/><rect class="cls-8" x="1092.88" y="393.02" width="212.81" height="6.74"/><rect class="cls-8" x="1092.88" y="409.52" width="212.81" height="6.74"/><rect class="cls-8" x="1092.88" y="426.03" width="212.81" height="6.74"/><path class="cls-9" d="M1307.91,388.19h33.85a29.07,29.07,0,0,0,29.14-29v-6.07A29.1,29.1,0,0,0,1341.76,324h-33.85a29,29,0,0,1,29,29.14v6.07A29,29,0,0,1,1307.91,388.19Z"/><path class="cls-5" d="M1092.9,324v64.21h215a29,29,0,0,0,29-29v-6.07a29,29,0,0,0-29-29.14Z"/><rect class="cls-8" x="1092.88" y="336.22" width="212.81" height="6.74"/><rect class="cls-8" x="1092.88" y="352.72" width="212.81" height="6.74"/><rect class="cls-8" x="1092.88" y="369.23" width="212.81" height="6.74"/><path class="cls-7" d="M1307.91,331.39h33.85a29.07,29.07,0,0,0,29.14-29v-6.07a29.1,29.1,0,0,0-29.14-29.14h-33.85a29,29,0,0,1,29,29.14v6.07A29,29,0,0,1,1307.91,331.39Z"/><path class="cls-4" d="M1092.9,267.18v64.21h215a29,29,0,0,0,29-29v-6.07a29,29,0,0,0-29-29.14Z"/><rect class="cls-8" x="1092.88" y="279.42" width="212.81" height="6.74"/><rect class="cls-8" x="1092.88" y="295.93" width="212.81" height="6.74"/><rect class="cls-8" x="1092.88" y="312.43" width="212.81" height="6.74"/><path class="cls-9" d="M1307.91,274.59h33.85a29.07,29.07,0,0,0,29.14-29v-6.07a29.1,29.1,0,0,0-29.14-29.14h-33.85a29,29,0,0,1,29,29.14v6.07A29,29,0,0,1,1307.91,274.59Z"/><path class="cls-5" d="M1092.9,210.38v64.21h215a29,29,0,0,0,29-29v-6.07a29,29,0,0,0-29-29.14Z"/><rect class="cls-8" x="1092.88" y="222.61" width="212.81" height="6.74"/><rect class="cls-8" x="1092.88" y="239.12" width="212.81" height="6.74"/><rect class="cls-8" x="1092.88" y="255.62" width="212.81" height="6.74"/><path class="cls-3" d="M1115.34,622.05s-9.82.6-23.23-7.76,6.25-24.75,13.11-19.78a4.67,4.67,0,0,1,1.55,1.72,13.49,13.49,0,0,1,5.25,1C1120.55,600.7,1115.34,622.05,1115.34,622.05Z"/><path class="cls-10" d="M1165.85,757.67c2-1.12,35-126,64.76-149.82s52.18-43,63.29-33.87,21.87,16.76,16.52,20.25-35.83,9.85-29.5,17.73,23.71,5.49,19.52,11.52-29.76-2.57-71.32,73.88-52.39,82.88-55.33,84.7S1165.85,757.67,1165.85,757.67Z"/><path class="cls-8" d="M1177.56,756.14a3.54,3.54,0,0,1-3.08-5.31c.4-.69,39.36-68.6,46.1-88.72,7.21-21.48,37.94-60.05,44.47-63.58a3.54,3.54,0,1,1,3.36,6.24c-4.6,2.62-34.35,39.46-41.11,59.6-7,20.78-45,87.17-46.67,90A3.55,3.55,0,0,1,1177.56,756.14Z"/><path class="cls-10" d="M1226.77,587.63c7.31,5.89,22.13,1,21.85,5.82a2.6,2.6,0,0,1-.29,1.2c-1.06,2.49-5.53,3.69-11.91,8.59-.43.35-.85.7-1.28,1-10.57,8.72-26,27.73-40.35,78-5,17.59-9.37,31.85-13.12,43.41-2.2,6.52-4.12,12.27-5.89,17.16-.92,2.41-1.7,4.54-2.41,6.6-2.41,6.17-4.47,10.92-6.17,14.61-4.47,9.57-6.88,11.91-8,13-.35.35-.92.07-1.63-.71,2.2-9.44.07-18.8-3.47-26.88a85.86,85.86,0,0,0-6.17-11.35c.28-3.69.63-7.87,1.06-12.41,1.06-12.13,2.48-27,4.47-42.48v-.08c1.91-15.1,4.25-30.71,7.23-44.75,4.12-19.08,9.36-35.39,16.1-43.76,23.83-29.71,41.56-53.4,54.4-46.81,5.53,2.77,10.92,5.32,14.89,7.66,5.32,3.12,8.16,5.89,5.61,8.51C1247.2,568.48,1218.9,581.25,1226.77,587.63Z"/><g class="cls-11"><path class="cls-12" d="M1226.77,587.63c7.31,5.89,22.13,1,21.85,5.82a2.6,2.6,0,0,1-.29,1.2c-1.06,2.49-5.53,3.69-11.91,8.59-.43.35-.85.7-1.28,1-10.57,8.72-26,27.73-40.35,78-5,17.59-9.37,31.85-13.12,43.41-2.2,6.52-4.12,12.27-5.89,17.16-.92,2.41-1.7,4.54-2.41,6.6-2.41,6.17-4.47,10.92-6.17,14.61-4.47,9.57-6.88,11.91-8,13-.35.35-.92.07-1.63-.71,2.2-9.44.07-18.8-3.47-26.88a166,166,0,0,1,5.39-23.76c1.56-5.32,3.4-10.71,5.39-16.1,2.05-5.68,4.25-11.42,6.66-17.09.93-2.34,1.92-4.61,2.91-6.88,17.87-41.85,39.72-80.57,34.61-91.21-6.45-13.33,22-30.92,37-38.94,5.32,3.12,8.16,5.89,5.61,8.51C1247.2,568.48,1218.9,581.25,1226.77,587.63Z"/></g><path class="cls-8" d="M1156.47,750.93a3.54,3.54,0,0,1-3.38-4.6c.23-.75,23.49-75.51,25.69-96.61,2.36-22.54,24-66.88,29.56-71.74a3.55,3.55,0,0,1,4.66,5.36c-3.92,3.56-25,46-27.17,67.11-2.27,21.8-25,94.89-26,98A3.56,3.56,0,0,1,1156.47,750.93Z"/><path class="cls-8" d="M1170.7,781.28a4,4,0,0,1-.49,0,3.55,3.55,0,0,1-3-4A335,335,0,0,0,1145.86,606a3.55,3.55,0,0,1,6.58-2.66,342.19,342.19,0,0,1,21.77,174.84A3.56,3.56,0,0,1,1170.7,781.28Z"/><path class="cls-3" d="M1151,609.33s-9.56-2.28-20-14.19,13.19-21.85,18.31-15.1a4.69,4.69,0,0,1,1,2.1,13.35,13.35,0,0,1,4.73,2.49C1162.24,590.43,1151,609.33,1151,609.33Z"/><path class="cls-8" d="M1183.24,781a3.55,3.55,0,0,1-3.5-3,334.73,334.73,0,0,0-70.31-157.56A3.55,3.55,0,1,1,1115,616a342,342,0,0,1,71.8,160.89,3.56,3.56,0,0,1-3,4.07A3.52,3.52,0,0,1,1183.24,781Z"/><path class="cls-4" d="M1186.63,870.26h-18.37c-57.45-3.19-24.61-60.64-12.62-87.94a32.84,32.84,0,0,0,1.91-6c2.2-9.44.07-18.8-3.47-26.88a81.54,81.54,0,0,0-16.1-23.76h78.93s-29.64,29.29-17.66,56.67S1244.08,867.07,1186.63,870.26Z"/><path class="cls-3" d="M949.44,745.54,782.65,850.35,596.74,865.5l-4.13.31-1.07-2.45-37.19-80L480.45,625S585.72,493.52,640,505.76l1.23-.15,32.28-2.6,83.7-7,37.49-3.22,33-2.75s27.85-.77,46.21,3.67l5,17Z"/><g class="cls-11"><path class="cls-12" d="M949.44,745.54,782.65,850.35l-190,15.46-1.07-2.45c42.07-24.79,136.79-56,136.79-56s129.61-55.7,120.89-120.43c-7-71.92,13.61-137.56,29.83-176.27Z"/></g><path class="cls-13" d="M692.14,836.11s-70.39,6.57-72.77,11.93-1.73,32.77-1.73,32.77,67.35-1.2,84,0S692.14,836.11,692.14,836.11Z"/><polygon class="cls-13" points="783.11 493.82 709.97 592.37 684.72 583.65 663 502.09 684.72 502.09 683.19 492.75 670.34 414.41 717.93 355.8 739.04 400.48 783.11 493.82"/><path class="cls-3" d="M999.17,625c45.6,142.15,42.08,205.65-12.24,242.38-54.47,36.57-291.19,20.81-291.19,20.81l-10.56-53.86s147.36-90.44,208.72-69.17c0,0-21-85.69-24.49-108.49,0,0-26.93-118.74,4.59-163C910.12,502.24,968.88,530.85,999.17,625Z"/><path class="cls-14" d="M794.74,492.75,735.07,593.13a32.44,32.44,0,0,1-27.85,16.53,9.54,9.54,0,0,1-2-.15c-12.09-.77-22.8-8.57-28-20.51l-36-83.39,32.28-2.6,31.83,73.9a3.72,3.72,0,0,0,1.84,2.14c.46,0,1.07-.61,1.53-1.52L757.25,496Z"/><g class="cls-11"><path class="cls-12" d="M739,400.48c-1.22,44.38-12.7,96.1-55.85,92.27l-12.85-78.34,47.59-58.61Z"/></g><path class="cls-13" d="M532.44,277.8S541,538,718,425.86s38.71-186.17,38.71-186.17Z"/><path class="cls-4" d="M590.73,436.83s-73.66-103.18-49.65-160.5c0,0,81.64,65.7,100.19,64.61,0,0-33.67-23.62-29.34-64.61,0,0,71,109.18,103,110.34.69,0,6.21,17.12,6.78,18.55,3.33,8.29,7.31,16.41,13.16,23.25,7.27,8.51,17,14.6,27.31,19,28.13,12,70.25,14.62,95.37-5.92,19-15.55,14.52-40.19,4.58-59.66-13.61-26.67-28.57-52.53-43.48-78.48-15.62-27.17-28.07-60.3-53.16-80.29-64.66-51.5-181-42.43-238,17.61-12.86,13.55-22.07,30.32-25,48.88a631.71,631.71,0,0,0-7.1,77.43c-1.17,36.78,1.7,82.53,39.65,100.33,11.56,5.42,29.21,9.19,40.56,1.82C586.23,462.29,589.86,448.78,590.73,436.83Z"/><path class="cls-3" d="M697.92,322.88S616,214.08,593.25,196.79a1.82,1.82,0,0,1,.37-3.06L611.27,185a5.7,5.7,0,0,1,7.19,1.78C632.8,206.89,697,298.13,697.92,322.88Z"/><circle class="cls-13" cx="690.2" cy="339.28" r="38.13" transform="translate(-37.75 587.42) rotate(-45)"/><g class="cls-11"><polygon class="cls-12" points="617.55 608.28 596.74 865.5 592.61 865.81 591.53 863.36 554.35 783.33 617.55 608.28"/></g><path class="cls-4" d="M648.81,888.17H305.18l-50.06-224.8c-4.71-21.18,7.07-38.34,26.31-38.34h274c19.24,0,38.66,17.16,43.37,38.34Z"/><rect class="cls-14" x="38.88" y="864.88" width="1285.33" height="32.26"/><circle class="cls-15" cx="430.74" cy="756.6" r="30.18" transform="translate(-423.9 590.57) rotate(-49.35)"/><rect class="cls-14" x="976.29" y="437.99" width="491.71" height="19.17"/></g></g></g></svg>