<svg xmlns="http://www.w3.org/2000/svg" viewBox="0 0 172.89 102.23"><defs><style>.cls-1{fill:#eb5d54;}</style></defs><g id="Слой_2" data-name="Слой 2"><g id="Слой_1-2" data-name="Слой 1"><path class="cls-1" d="M12.15,2.69a1.91,1.91,0,0,0-.35-.84,1.65,1.65,0,0,0-.74-.6l-.14-.05H9.78l-1.12,0c-1.26,0-2.51,0-3.73,0s-2.49,0-3.79.08a1.38,1.38,0,0,0-.7.45,1.81,1.81,0,0,0-.39.7,1.21,1.21,0,0,0,0,.73.89.89,0,0,0,.49.55A3.47,3.47,0,0,0,1.65,4q.63.08,1.23.09c.39,0,.76,0,1.09,0s.58,0,.72,0V9.57c0,1.82,0,3.65,0,5.48a1.29,1.29,0,0,0,.44,1,1.72,1.72,0,0,0,1,.42,1.5,1.5,0,0,0,1-.24,1.05,1.05,0,0,0,.45-1c0-2,0-3.91,0-5.72s0-3.65,0-5.51c.46,0,1,0,1.64,0a10.29,10.29,0,0,0,2-.16A1.18,1.18,0,0,0,12,3.47,1.17,1.17,0,0,0,12.15,2.69Z"/><path class="cls-1" d="M11.66,5.91a1.26,1.26,0,0,0-.14.71,1.5,1.5,0,0,0,.24.7,1.62,1.62,0,0,0,.59.54,2.19,2.19,0,0,1,0,.55c0,.1,0,.12,0,.06V15a1.36,1.36,0,0,0,.34,1,1.44,1.44,0,0,0,1.7.35,1.28,1.28,0,0,0,.67-.75,1.8,1.8,0,0,0,.14-.68v-6l.52-.52a6.42,6.42,0,0,1,.63-.54,3.2,3.2,0,0,1,.7-.38,1.18,1.18,0,0,1,.74,0,1.14,1.14,0,0,1,.25.15.88.88,0,0,0,.19.15,1.74,1.74,0,0,0,.89.51A1.32,1.32,0,0,0,20,8.13a1.34,1.34,0,0,0,.59-.63,1.57,1.57,0,0,0,.09-1,1.44,1.44,0,0,0-.35-.71,3,3,0,0,0-.61-.53,3.7,3.7,0,0,0-1.33-.58,4,4,0,0,0-1.33,0A5,5,0,0,0,15.74,5a7.69,7.69,0,0,0-1.22.75,3.22,3.22,0,0,0-1.11-.56,1.5,1.5,0,0,0-1.18.12A1.42,1.42,0,0,0,11.66,5.91Z"/><path class="cls-1" d="M26.34,13.75c-.3.51-.59,1-.88,1.54s-.58,1-.9,1.54c-.07.14-.18.32-.32.54s-.28.44-.42.69-.27.47-.38.7a1.57,1.57,0,0,0-.18.55,1.54,1.54,0,0,0,.17,1,1.43,1.43,0,0,0,.58.59,1.3,1.3,0,0,0,.81.11,1.59,1.59,0,0,0,.86-.46,2,2,0,0,0,.4-.52c.14-.23.28-.48.41-.74l.39-.78.32-.63c.66-1.1,1.3-2.21,1.92-3.34s1.2-2.26,1.73-3.43l.49-1.1c.2-.46.4-1,.59-1.47A14.36,14.36,0,0,0,32.42,7a3.11,3.11,0,0,0,.16-1.13A1.53,1.53,0,0,0,32.19,5a1.36,1.36,0,0,0-1.55-.34,1.48,1.48,0,0,0-.7.64l-.1.14c-.28,1-.6,2-1,2.89s-.76,1.88-1.21,2.81a10.28,10.28,0,0,1-2.83-3.94,4.7,4.7,0,0,1-.19-.63c-.06-.24-.13-.47-.2-.69a3.05,3.05,0,0,0-.3-.63,1.16,1.16,0,0,0-.47-.46,1.44,1.44,0,0,0-.74-.16,1.2,1.2,0,0,0-.64.22,1.51,1.51,0,0,0-.46.51,2,2,0,0,0-.22.71,1.42,1.42,0,0,0,.07.68c.08.22.16.44.23.66a12.84,12.84,0,0,0,1.74,3.47A15.72,15.72,0,0,0,26.34,13.75Z"/><path class="cls-1" d="M43.71,7.44a2,2,0,0,0,.8.4l1.05,0V9c0,.49,0,1,0,1.53s0,1.06,0,1.56V13.3a10.08,10.08,0,0,0,0,1.1,5.37,5.37,0,0,0,.1.84,1.13,1.13,0,0,0,.25.56,1.74,1.74,0,0,0,.7.39,1.61,1.61,0,0,0,.72,0,1.23,1.23,0,0,0,.63-.3,1.33,1.33,0,0,0,.4-.67,3.19,3.19,0,0,0,.08-1.12A11.17,11.17,0,0,1,48.41,13c0-.86,0-1.71,0-2.57s0-1.71,0-2.57l1.46,0a2,2,0,0,0,1.25-.47,1,1,0,0,0,.36-.65,1.58,1.58,0,0,0-.07-.78A1.61,1.61,0,0,0,51,5.29,1,1,0,0,0,50.26,5H48.41c0-.56,0-1.12,0-1.68s0-1.12,0-1.68a.75.75,0,0,0-.08-.31,1.12,1.12,0,0,0-.18-.28A1.4,1.4,0,0,0,47,.4,1.26,1.26,0,0,0,45.87,1a1.64,1.64,0,0,0-.26.83,9.85,9.85,0,0,0-.08,1.25c0,.43,0,.83,0,1.2s0,.6,0,.71h-.91a1.35,1.35,0,0,0-.84.28,1.45,1.45,0,0,0-.57.72,1.16,1.16,0,0,0,0,.78A1.45,1.45,0,0,0,43.71,7.44Z"/><path class="cls-1" d="M54.23,16.43a3.57,3.57,0,0,0,2.37.38,5.44,5.44,0,0,0,2.17-1A7.13,7.13,0,0,0,60.48,14a6.34,6.34,0,0,0,1.09-3.66,11.62,11.62,0,0,0-.12-1.51,4.74,4.74,0,0,0-.87-2.09A4.21,4.21,0,0,0,59,5.43,4.55,4.55,0,0,0,57,5a4.84,4.84,0,0,0-2.16.57,4.76,4.76,0,0,0-1.13.8,6.56,6.56,0,0,0-1,1.08A8.18,8.18,0,0,0,52,8.7,7.44,7.44,0,0,0,51.57,10l0,.14a11,11,0,0,0-.16,1.3,4.23,4.23,0,0,0,.12,1.32A7.91,7.91,0,0,0,51.86,14,4.31,4.31,0,0,0,52.48,15a4.29,4.29,0,0,0,.78.81A5.44,5.44,0,0,0,54.23,16.43Zm0-5.17c0-.24.07-.49.12-.74a5.12,5.12,0,0,1,.43-1,3.75,3.75,0,0,1,.63-.86,3,3,0,0,1,.85-.58,2.58,2.58,0,0,1,1.08-.22A2,2,0,0,1,58.55,9a3.64,3.64,0,0,1,.19,1.71,4.55,4.55,0,0,1-.61,1.73A3.36,3.36,0,0,1,57,13.65a2,2,0,0,1-1,.3,1.49,1.49,0,0,1-.83-.27,1.94,1.94,0,0,1-.59-.7,3.45,3.45,0,0,1-.29-1A3,3,0,0,1,54.25,11.26Z"/><path class="cls-1" d="M72.56,14.53a5,5,0,0,0,1.56,1.3,4.63,4.63,0,0,0,1.95.51,4.54,4.54,0,0,0,2.08-.42,5.85,5.85,0,0,0,.92-.52,2.55,2.55,0,0,0,.74-.72,1.82,1.82,0,0,0,.36-1.11,1.22,1.22,0,0,0-.38-.84,1.38,1.38,0,0,0-.86-.36,1.78,1.78,0,0,0-1.11.33l-.12.09a2.54,2.54,0,0,1-1.08.63,1.64,1.64,0,0,1-1,0,1.71,1.71,0,0,1-.79-.64,2.72,2.72,0,0,1-.46-1.19,4,4,0,0,1,.19-2.09A5,5,0,0,1,75.72,7.7L76,7.56l.3-.17.63-.07a.54.54,0,0,1,.35.08,1.23,1.23,0,0,0,.35.16l.65.52a1.85,1.85,0,0,0,.66.32,1.46,1.46,0,0,0,.69,0,1.6,1.6,0,0,0,.6-.29,1.38,1.38,0,0,0,.39-.53,1.23,1.23,0,0,0,.1-.69,1.74,1.74,0,0,0-.65-1.17,4.73,4.73,0,0,0-1.33-.79,6.45,6.45,0,0,0-1.55-.41,4.42,4.42,0,0,0-1.31,0,3.77,3.77,0,0,0-1.38.55A6.48,6.48,0,0,0,73.36,6a5.79,5.79,0,0,0-.88,1.2,9.18,9.18,0,0,0-.62,1.35,7.37,7.37,0,0,0-.18,4A4.61,4.61,0,0,0,72.56,14.53Z"/><path class="cls-1" d="M82.91,15.26a1.77,1.77,0,0,0,.46.65,3.41,3.41,0,0,0,.72.5,2.91,2.91,0,0,0,.83.28,1.52,1.52,0,0,0,.77-.05,1.11,1.11,0,0,0,.62-.48,1.21,1.21,0,0,0,.16-.67,1.88,1.88,0,0,0-.62-1.32l-.21-.12c0-.39,0-.91,0-1.55s0-1.36,0-2.14,0-1.59,0-2.44,0-1.67,0-2.47,0-1.52,0-2.19V1.65a.88.88,0,0,0-.15-.49,1.52,1.52,0,0,0-.39-.41,1.74,1.74,0,0,0-.5-.27,1.14,1.14,0,0,0-.5-.07,1.66,1.66,0,0,0-.9.44,1.18,1.18,0,0,0-.41.91v13c0,.08,0,.16,0,.27A1.38,1.38,0,0,0,82.91,15.26Z"/><path class="cls-1" d="M91.39,8.75V6.05A1.47,1.47,0,0,0,91,5.13a1.13,1.13,0,0,0-.67-.49,1.27,1.27,0,0,0-.75,0,1.58,1.58,0,0,0-.65.42,1.62,1.62,0,0,0-.41.72,3.14,3.14,0,0,0-.07,1.14,8.68,8.68,0,0,1,.07,1.13c0,.92,0,1.83,0,2.73s0,1.82,0,2.74c0,.17,0,.36,0,.57s0,.42,0,.63a3.12,3.12,0,0,0,.11.61,1.3,1.3,0,0,0,.27.52,1.34,1.34,0,0,0,.75.52,1.28,1.28,0,0,0,.78-.07,1.77,1.77,0,0,0,.64-.53,1.56,1.56,0,0,0,.33-.83v-2.4q0-1.12,0-2.25C91.4,9.8,91.39,9.28,91.39,8.75Z"/><path class="cls-1" d="M90,0A1.55,1.55,0,0,0,89,.4a1.8,1.8,0,0,0-.6,1.27l0,.16A1.68,1.68,0,0,0,89,3a1.59,1.59,0,0,0,1.1.31,1.77,1.77,0,0,0,1-.49,1.5,1.5,0,0,0,.4-1.23,1.55,1.55,0,0,0-.5-1.19A1.6,1.6,0,0,0,90,0Z"/><path class="cls-1" d="M102.22,13.57a1.22,1.22,0,0,0-.38-.84,1.38,1.38,0,0,0-.86-.36,1.78,1.78,0,0,0-1.11.33l-.12.09a2.54,2.54,0,0,1-1.08.63,1.64,1.64,0,0,1-1,0,1.71,1.71,0,0,1-.79-.64,2.72,2.72,0,0,1-.46-1.19,4,4,0,0,1,.19-2.09A5,5,0,0,1,97.77,7.7l.28-.14.3-.17L99,7.32a.54.54,0,0,1,.35.08,1.23,1.23,0,0,0,.35.16l.64.52a2,2,0,0,0,.67.32,1.46,1.46,0,0,0,.69,0,1.6,1.6,0,0,0,.6-.29,1.38,1.38,0,0,0,.39-.53,1.23,1.23,0,0,0,.1-.69,1.74,1.74,0,0,0-.65-1.17,4.73,4.73,0,0,0-1.33-.79,6.45,6.45,0,0,0-1.55-.41,4.42,4.42,0,0,0-1.31,0,3.77,3.77,0,0,0-1.38.55A6.48,6.48,0,0,0,95.41,6a5.79,5.79,0,0,0-.88,1.2,9.18,9.18,0,0,0-.62,1.35,7.37,7.37,0,0,0-.18,4,4.61,4.61,0,0,0,.88,1.93,5,5,0,0,0,1.56,1.3,4.63,4.63,0,0,0,2,.51,4.54,4.54,0,0,0,2.08-.42,5.85,5.85,0,0,0,.92-.52,2.55,2.55,0,0,0,.74-.72A1.82,1.82,0,0,0,102.22,13.57Z"/><path class="cls-1" d="M107.18,10.8c.44.46.86.92,1.27,1.39l1.25,1.44c.17.19.36.41.56.68s.42.52.65.77a6.6,6.6,0,0,0,.71.69,2.12,2.12,0,0,0,.77.43,1.22,1.22,0,0,0,.78,0,1.5,1.5,0,0,0,.61-.44,1.37,1.37,0,0,0,.31-.69,1.22,1.22,0,0,0-.11-.77,3.37,3.37,0,0,0-.55-.76c-.21-.21-.43-.44-.67-.71-.54-.61-1.08-1.21-1.61-1.82s-1.06-1.21-1.61-1.8c.2-.15.47-.38.79-.66s.66-.61,1-.95.64-.68.91-1a2.81,2.81,0,0,0,.52-.82,1.49,1.49,0,0,0,0-.83,1.34,1.34,0,0,0-.36-.66,1.42,1.42,0,0,0-.66-.36A1.59,1.59,0,0,0,111,4a2.06,2.06,0,0,0-1,.76,9.18,9.18,0,0,1-.82,1c-.31.31-.62.61-.94.9a11.89,11.89,0,0,1-1,.83c0-1,0-1.95,0-2.92s0-2.06-.07-3.27a1.19,1.19,0,0,0-.24-.74,1.1,1.1,0,0,0-.53-.35,1.61,1.61,0,0,0-.66,0,1.75,1.75,0,0,0-.67.25,1.6,1.6,0,0,0-.5.47,1.16,1.16,0,0,0-.2.65V14.82a1.41,1.41,0,0,0,.39,1.06,1.25,1.25,0,0,0,.88.41,1.5,1.5,0,0,0,1-.31,1.68,1.68,0,0,0,.61-1.11Z"/><path class="cls-1" d="M9.12,30.66a1,1,0,0,0-.72-.28H6.55c0-.56,0-1.12,0-1.68s0-1.13,0-1.69a.61.61,0,0,0-.08-.3,1.48,1.48,0,0,0-.17-.28,1.47,1.47,0,0,0-1.13-.67A1.32,1.32,0,0,0,4,26.38a1.72,1.72,0,0,0-.26.83c0,.4-.07.82-.08,1.25s0,.84,0,1.21,0,.6,0,.71H2.79a1.35,1.35,0,0,0-.84.28,1.57,1.57,0,0,0-.57.72,1.26,1.26,0,0,0,0,.77,1.5,1.5,0,0,0,.47.66,1.93,1.93,0,0,0,.8.39l1.06,0v1.14c0,.48,0,1,0,1.53s0,1.06,0,1.56v1.21a10.08,10.08,0,0,0,0,1.1,5.67,5.67,0,0,0,.1.84,1.17,1.17,0,0,0,.25.56,1.79,1.79,0,0,0,.7.38,1.62,1.62,0,0,0,.72.05,1.24,1.24,0,0,0,.63-.3,1.37,1.37,0,0,0,.4-.67,3,3,0,0,0,.08-1.12,11.17,11.17,0,0,1-.06-1.14c0-.86,0-1.72,0-2.57s0-1.72,0-2.57c.5,0,1,0,1.46,0a2,2,0,0,0,1.25-.46,1,1,0,0,0,.37-.66,1.68,1.68,0,0,0-.07-.77A1.57,1.57,0,0,0,9.12,30.66Z"/><path class="cls-1" d="M20.52,33.58a4.44,4.44,0,0,0-1.21-1.75A4,4,0,0,0,17.7,31a4,4,0,0,0-1.8,0,5.3,5.3,0,0,0-1.8.79c0-.78,0-1.56,0-2.33s0-1.56-.08-2.37a1.09,1.09,0,0,0-.49-1,1.38,1.38,0,0,0-1-.16,1.88,1.88,0,0,0-.93.47,1.17,1.17,0,0,0-.42.91v13a1.43,1.43,0,0,0,.39,1.06,1.34,1.34,0,0,0,.88.41,1.51,1.51,0,0,0,1-.32,1.64,1.64,0,0,0,.61-1.11V35.91a2.13,2.13,0,0,0,.21-.22,1.12,1.12,0,0,0,.16-.22l.55-.65a4.57,4.57,0,0,1,.57-.59,2.08,2.08,0,0,1,.68-.38,1.67,1.67,0,0,1,.84-.06,2,2,0,0,1,.82,1A3.74,3.74,0,0,1,18.2,36a10.05,10.05,0,0,1,0,1.44c0,.49-.08,1-.1,1.45a7.41,7.41,0,0,0,.05,1.35,2.22,2.22,0,0,0,.43,1.1,1.24,1.24,0,0,0,1.6.39,1.61,1.61,0,0,0,.64-.58,1.63,1.63,0,0,0,.26-.89c0-.51,0-1.06,0-1.63s0-1.16,0-1.74A16.37,16.37,0,0,0,21,35.18,6,6,0,0,0,20.52,33.58Z"/><path class="cls-1" d="M32.42,37.84a2,2,0,0,0-1,0l-.14.07a9.38,9.38,0,0,1-1.31.64,5.18,5.18,0,0,1-1.39.39,3.63,3.63,0,0,1-1.32-.06,2.17,2.17,0,0,1-1.12-.71c.48-.16,1-.3,1.51-.42a15.87,15.87,0,0,0,1.53-.46,12.45,12.45,0,0,0,1.45-.63,5.21,5.21,0,0,0,1.28-.94,2.64,2.64,0,0,0,.76-1.35,3.27,3.27,0,0,0,0-1.46A3.65,3.65,0,0,0,32,31.58a3.48,3.48,0,0,0-1.21-.95,4,4,0,0,0-1.93-.33,6.94,6.94,0,0,0-2.15.45,7.25,7.25,0,0,0-1.92,1.08,4.24,4.24,0,0,0-1.26,1.49A6.85,6.85,0,0,0,23,34.79a7.7,7.7,0,0,0-.14,1.66,7.08,7.08,0,0,0,.25,1.65,4.41,4.41,0,0,0,.69,1.43A5.42,5.42,0,0,0,25.28,41a4.55,4.55,0,0,0,1.68.68,5.68,5.68,0,0,0,1.93,0,11.93,11.93,0,0,0,2.17-.58,7.63,7.63,0,0,0,1-.45A2.31,2.31,0,0,0,32.9,40a1.71,1.71,0,0,0,.4-.93,1.06,1.06,0,0,0-.21-.75A1.33,1.33,0,0,0,32.42,37.84Zm-6.5-3.25a2.07,2.07,0,0,1,.79-.76l.42-.23a4.32,4.32,0,0,1,1.17-.4,2.51,2.51,0,0,1,1.36.1.38.38,0,0,1,.24.24,1.13,1.13,0,0,1,.06.36c0,.22-.16.43-.47.61a6.12,6.12,0,0,1-1.14.52c-.45.15-.93.3-1.44.44s-1,.27-1.36.4A3.62,3.62,0,0,1,25.92,34.59Z"/><path class="cls-1" d="M49.78,35.17a5.59,5.59,0,0,0-1.13-.54c-.41-.14-.82-.27-1.24-.37a5.36,5.36,0,0,1-1.19-.47.45.45,0,0,1-.25-.31.94.94,0,0,1,0-.37.79.79,0,0,1,.18-.31.53.53,0,0,1,.21-.16,1.92,1.92,0,0,1,.79-.06,3.88,3.88,0,0,1,.92.23l.63.24a1.6,1.6,0,0,0,.67.13,1.2,1.2,0,0,0,.93-.35,1.25,1.25,0,0,0,.32-.83,1.67,1.67,0,0,0-.27-.94,1.73,1.73,0,0,0-.84-.73A8.31,8.31,0,0,0,48.46,30a6,6,0,0,0-1.18-.23,5.16,5.16,0,0,0-1.18,0,2.77,2.77,0,0,0-1.07.36,3.88,3.88,0,0,0-1.13,1,3.64,3.64,0,0,0-.66,1.28,3.88,3.88,0,0,0-.12,1.44,3.09,3.09,0,0,0,.53,1.39,3,3,0,0,0,1.09,1,10.3,10.3,0,0,0,1.38.6,9.22,9.22,0,0,0,1.07.28,1.87,1.87,0,0,1,1,.51.76.76,0,0,1,.18.43,1.44,1.44,0,0,1,0,.51.86.86,0,0,1-.27.39.82.82,0,0,1-.53.17,6.34,6.34,0,0,1-.93-.21,2.63,2.63,0,0,1-.84-.45,2.73,2.73,0,0,1-.37-.32,2.89,2.89,0,0,0-.35-.35,1.49,1.49,0,0,0-.38-.28,1.07,1.07,0,0,0-.47-.14,1.33,1.33,0,0,0-.79.12,1.27,1.27,0,0,0-.51.49,1.66,1.66,0,0,0-.19.7,2,2,0,0,0,.11.79l.07.14a7.56,7.56,0,0,0,1,1,6.58,6.58,0,0,0,1.22.8,5.22,5.22,0,0,0,1.35.49,4.58,4.58,0,0,0,1.43.09,3.58,3.58,0,0,0,1.8-.72,3.81,3.81,0,0,0,1.16-1.43A4,4,0,0,0,51.18,38a3.69,3.69,0,0,0-.53-1.86A2.52,2.52,0,0,0,49.78,35.17Z"/><path class="cls-1" d="M62.19,33.46a3.16,3.16,0,0,0-.69-2.12,3.31,3.31,0,0,0-1.65-1.06,4.71,4.71,0,0,0-2.12-.07,5.66,5.66,0,0,0-2,.82,1.5,1.5,0,0,0-.76-.62,1.53,1.53,0,0,0-.87,0,1.38,1.38,0,0,0-.71.44,1.24,1.24,0,0,0-.3.85v3.69c0,.75,0,1.46,0,2.14s0,1.2,0,1.55c0,.14,0,.33,0,.58a3.12,3.12,0,0,0,.06.74,2.34,2.34,0,0,0,.25.73,1.11,1.11,0,0,0,.61.48,1.83,1.83,0,0,0,.48.11.92.92,0,0,0,.48-.07,1.25,1.25,0,0,0,.68-.51,2,2,0,0,0,.27-.77,5,5,0,0,0,0-.87c0-.29,0-.56,0-.81V35.42a1.8,1.8,0,0,1,.36-1,4.11,4.11,0,0,1,.73-.83A3.58,3.58,0,0,1,58,33,2,2,0,0,1,59.16,33c0,.05.08.08.09.11a.56.56,0,0,1,0,.08,23.51,23.51,0,0,1,.1,2.51c0,.83,0,1.67,0,2.51,0,.4,0,.84,0,1.32a3.72,3.72,0,0,0,.17,1.37,1.24,1.24,0,0,0,.6.81,1.35,1.35,0,0,0,.88.12,1.56,1.56,0,0,0,.82-.47,1.64,1.64,0,0,0,.43-1v-6c0-.28,0-.5,0-.66S62.19,33.49,62.19,33.46Z"/><path class="cls-1" d="M73.29,32.12A4.18,4.18,0,0,0,71.7,30.8a4.45,4.45,0,0,0-2-.43,4.56,4.56,0,0,0-2.16.57,4.8,4.8,0,0,0-1.13.79,7.21,7.21,0,0,0-1.66,2.34,7.22,7.22,0,0,0-.46,1.33l0,.14a10.74,10.74,0,0,0-.16,1.3,3.94,3.94,0,0,0,.11,1.32,10.45,10.45,0,0,0,.36,1.16,4.5,4.5,0,0,0,.62,1.08,4.28,4.28,0,0,0,.79.8,4.87,4.87,0,0,0,1,.6,3.6,3.6,0,0,0,2.38.37,5.31,5.31,0,0,0,2.17-1,6.89,6.89,0,0,0,1.7-1.82,6.39,6.39,0,0,0,.95-2.18,6.47,6.47,0,0,0,.15-1.48,11.7,11.7,0,0,0-.13-1.51A4.85,4.85,0,0,0,73.29,32.12Zm-1.85,4a4.66,4.66,0,0,1-.6,1.72A3.31,3.31,0,0,1,69.67,39a2,2,0,0,1-1,.29,1.44,1.44,0,0,1-.83-.27,1.84,1.84,0,0,1-.58-.7,2.8,2.8,0,0,1-.29-1,3,3,0,0,1,0-.73c0-.25.07-.49.11-.74a5.51,5.51,0,0,1,.44-1,3.91,3.91,0,0,1,.63-.85,2.67,2.67,0,0,1,.85-.58,2.57,2.57,0,0,1,1.07-.23,2,2,0,0,1,1.2,1.16A3.51,3.51,0,0,1,71.44,36.07Z"/><path class="cls-1" d="M89.62,30.18a1.37,1.37,0,0,0-.86.07,1.85,1.85,0,0,0-.8.64l-.1.14c-.31.94-.6,1.87-.86,2.82s-.57,1.88-.91,2.81c-.24-.54-.46-1.1-.67-1.67s-.42-1.13-.64-1.69c-.12-.35-.24-.71-.35-1.09a3.94,3.94,0,0,0-.47-1,1.09,1.09,0,0,0-.56-.48,1.46,1.46,0,0,0-.72-.07,1.74,1.74,0,0,0-.69.28,1.43,1.43,0,0,0-.48.58l-.28.66-.28.69c-.13.33-.25.65-.39,1s-.26.66-.41,1-.29.7-.37.91l-.21.51c-.19-.61-.36-1.21-.52-1.82s-.31-1.22-.44-1.85c-.07-.4-.14-.78-.21-1.13a1.93,1.93,0,0,0-.53-1,1.21,1.21,0,0,0-.69-.35,1.42,1.42,0,0,0-.74.1,1.49,1.49,0,0,0-.59.47,1.18,1.18,0,0,0-.27.71,4.31,4.31,0,0,0,.08,1c.07.4.16.82.28,1.25l.36,1.25c.13.4.23.73.3,1,.16.46.31,1,.45,1.46s.29,1,.47,1.48.24.72.37,1.12A4,4,0,0,0,78.4,41a1.5,1.5,0,0,0,.51.43,1.53,1.53,0,0,0,1.26.07,1.2,1.2,0,0,0,.52-.43,2.72,2.72,0,0,0,.4-.82,8.84,8.84,0,0,1,.3-.87c.21-.49.41-1,.61-1.51s.41-1,.61-1.55l.14-.35c.12.32.26.62.4.93s.26.58.37.83.13.33.27.68.28.72.45,1.11a11.07,11.07,0,0,0,.54,1.09,2.15,2.15,0,0,0,.51.67,1.39,1.39,0,0,0,1.24.29,2,2,0,0,0,.89-.73,4.85,4.85,0,0,0,.62-1.2c.16-.45.3-.84.41-1.17L89,36.92l.3-.91c.07-.22.12-.38.16-.47s.07-.17.09-.23c.29-1,.54-1.78.75-2.39a4.08,4.08,0,0,0,.3-1.26,1.75,1.75,0,0,0-.31-1A1.21,1.21,0,0,0,89.62,30.18Z"/><path class="cls-1" d="M100.48,26.15a2.94,2.94,0,0,0-.69-.54,5.82,5.82,0,0,0-.81-.35A4.94,4.94,0,0,0,97,25a4.15,4.15,0,0,0-1.69.49,3.61,3.61,0,0,0-1.27,1.19,4.34,4.34,0,0,0-.66,1.87,7.39,7.39,0,0,0-.1,1.4l0,1.43a2.61,2.61,0,0,0-.57.1,1.15,1.15,0,0,0-.5.34,1.41,1.41,0,0,0-.38.76,1.45,1.45,0,0,0,.13.77,1.57,1.57,0,0,0,.54.61,1.43,1.43,0,0,0,.81.24v6.15a1.23,1.23,0,0,0,.07.42,1.59,1.59,0,0,0,.18.4,1.36,1.36,0,0,0,.7.63,1.28,1.28,0,0,0,.82,0,1.59,1.59,0,0,0,.7-.52,1.79,1.79,0,0,0,.38-.89V34.14H97a8.55,8.55,0,0,0,.87,0,7.37,7.37,0,0,0,.84-.13,1.74,1.74,0,0,0,.7-.33,1.27,1.27,0,0,0,.45-.61,1.17,1.17,0,0,0,.06-.69,1.52,1.52,0,0,0-.3-.63,1.5,1.5,0,0,0-.61-.43,1.88,1.88,0,0,0-.51-.09c-.22,0-.46,0-.71,0s-.52,0-.79,0l-.74.05c0-.36,0-.72,0-1.09s0-.73,0-1.09a1.56,1.56,0,0,1,.31-.92,1.22,1.22,0,0,1,.36-.32.75.75,0,0,1,.47-.07,2.77,2.77,0,0,1,.49.15l.49.18a4.16,4.16,0,0,0,.85.31,1.43,1.43,0,0,0,.88-.1,1.07,1.07,0,0,0,.5-.41,1.55,1.55,0,0,0,.24-.58,1.5,1.5,0,0,0,0-.63A1.41,1.41,0,0,0,100.48,26.15Z"/><path class="cls-1" d="M104.73,39.53l-.21-.11c0-.39,0-.91,0-1.56s0-1.35,0-2.13,0-1.6,0-2.44,0-1.67,0-2.47,0-1.52,0-2.19V27a.91.91,0,0,0-.15-.49,1.67,1.67,0,0,0-.39-.41,1.83,1.83,0,0,0-.5-.26,1,1,0,0,0-.5-.07,1.59,1.59,0,0,0-.9.44,1.19,1.19,0,0,0-.41.91v13c0,.08,0,.17,0,.27a1.46,1.46,0,0,0,.53.91,3.12,3.12,0,0,0,.72.51,3,3,0,0,0,.83.28,1.63,1.63,0,0,0,.77-.05,1.08,1.08,0,0,0,.62-.48,1.32,1.32,0,0,0,.17-.68,1.76,1.76,0,0,0-.19-.72A2.1,2.1,0,0,0,104.73,39.53Z"/><path class="cls-1" d="M115.92,38a2.21,2.21,0,0,1-.11-.55c0-.23,0-.46-.06-.71s0-.49,0-.71v-.55c0-.42,0-.84,0-1.25s0-.84,0-1.28c0-.26,0-.48,0-.66a4.16,4.16,0,0,0,0-.5,1.34,1.34,0,0,0-.1-.45,3.43,3.43,0,0,0-.31-.49,1.35,1.35,0,0,0-.78-.49,5,5,0,0,0-1.1-.15,6.08,6.08,0,0,0-1.13.08,5.11,5.11,0,0,0-.89.21,7,7,0,0,0-3.15,2.22,6.72,6.72,0,0,0-.69,1,7.26,7.26,0,0,0-.53,1.1c-.11.31-.2.63-.29,1a6.74,6.74,0,0,0-.17,1,5.46,5.46,0,0,0,.21,2.19,3.81,3.81,0,0,0,.94,1.58,4.11,4.11,0,0,0,1.58.94,5.93,5.93,0,0,0,2.13.27,5.41,5.41,0,0,0,1.41-.22,4.21,4.21,0,0,0,1.27-.69,2,2,0,0,0,.94.75,1.53,1.53,0,0,0,1,0,1.28,1.28,0,0,0,.71-.59,1.43,1.43,0,0,0,.07-1.13Zm-3.44.5-.58.36a1.6,1.6,0,0,1-.76.12,2.05,2.05,0,0,1-.77-.21,1.71,1.71,0,0,1-.62-.55,1.68,1.68,0,0,1-.28-.9,2.91,2.91,0,0,1,.07-.82,6.89,6.89,0,0,1,.23-.81A3.81,3.81,0,0,1,110.94,34a4,4,0,0,1,1.89-.91c0,.84,0,1.67,0,2.5a17.37,17.37,0,0,0,.25,2.48A3,3,0,0,1,112.48,38.54Z"/><path class="cls-1" d="M127.7,38.89c-.21-.21-.43-.45-.67-.71l-1.61-1.82c-.53-.61-1.06-1.21-1.61-1.8.2-.16.47-.38.8-.67s.65-.6,1-.94.64-.68.91-1a2.79,2.79,0,0,0,.52-.81,1.5,1.5,0,0,0,0-.83,1.34,1.34,0,0,0-1-1,1.49,1.49,0,0,0-.83,0,2,2,0,0,0-1,.76,10.27,10.27,0,0,1-.82,1c-.31.31-.62.61-.94.9s-.66.56-1,.83c0-1,0-2,0-2.92s0-2.06-.07-3.27a1.26,1.26,0,0,0-.25-.74,1,1,0,0,0-.53-.35,1.61,1.61,0,0,0-.66,0,2,2,0,0,0-.67.24,1.76,1.76,0,0,0-.5.48,1.15,1.15,0,0,0-.2.64V40.19a1.43,1.43,0,0,0,.39,1.06,1.3,1.3,0,0,0,.89.41,1.44,1.44,0,0,0,1-.32,1.6,1.6,0,0,0,.61-1.11V36.17c.44.45.86.92,1.28,1.39L124,39c.17.18.35.41.56.67a9.46,9.46,0,0,0,.64.78,7.6,7.6,0,0,0,.71.68,2.24,2.24,0,0,0,.77.44,1.22,1.22,0,0,0,.78,0,1.39,1.39,0,0,0,.61-.43,1.47,1.47,0,0,0,.32-.69,1.3,1.3,0,0,0-.12-.77A3.37,3.37,0,0,0,127.7,38.89Z"/><path class="cls-1" d="M138.61,37.84a2,2,0,0,0-1,0l-.14.07a10.61,10.61,0,0,1-1.31.64,5.28,5.28,0,0,1-1.39.39,3.63,3.63,0,0,1-1.32-.06,2.13,2.13,0,0,1-1.12-.71q.72-.24,1.5-.42a15.06,15.06,0,0,0,1.53-.46,12.45,12.45,0,0,0,1.45-.63,5.08,5.08,0,0,0,1.29-.94,2.79,2.79,0,0,0,.76-1.35,3.27,3.27,0,0,0,0-1.46,3.6,3.6,0,0,0-1.89-2.29A4,4,0,0,0,135,30.3a7.15,7.15,0,0,0-4.06,1.53,4.39,4.39,0,0,0-1.27,1.49,6.85,6.85,0,0,0-.46,1.47,7.12,7.12,0,0,0-.14,1.66,6.58,6.58,0,0,0,.24,1.65,4.41,4.41,0,0,0,.69,1.43A5.56,5.56,0,0,0,131.46,41a4.55,4.55,0,0,0,1.68.68,5.68,5.68,0,0,0,1.93,0,11.52,11.52,0,0,0,2.17-.58,7.72,7.72,0,0,0,1-.45,2.49,2.49,0,0,0,.84-.68,1.62,1.62,0,0,0,.39-.93,1.06,1.06,0,0,0-.21-.75A1.26,1.26,0,0,0,138.61,37.84Zm-6.51-3.25a2.1,2.1,0,0,1,.8-.76l.42-.23a4.32,4.32,0,0,1,1.17-.4,2.48,2.48,0,0,1,1.35.1.4.4,0,0,1,.25.24,1.49,1.49,0,0,1,0,.36c0,.22-.15.43-.46.61a6.23,6.23,0,0,1-1.15.52c-.45.15-.93.3-1.43.44s-1,.27-1.37.4A3.84,3.84,0,0,1,132.1,34.59Z"/><path class="cls-1" d="M144.32,41.83a4.52,4.52,0,0,0,1.42.09,3.51,3.51,0,0,0,1.8-.72,3.74,3.74,0,0,0,1.17-1.43A4.12,4.12,0,0,0,149.1,38a3.8,3.8,0,0,0-.53-1.86,2.55,2.55,0,0,0-.88-.93,5.35,5.35,0,0,0-1.13-.54,12.68,12.68,0,0,0-1.24-.37,5.56,5.56,0,0,1-1.19-.47.43.43,0,0,1-.24-.31.67.67,0,0,1,0-.37.79.79,0,0,1,.18-.31.42.42,0,0,1,.21-.16,1.91,1.91,0,0,1,.79-.06,3.68,3.68,0,0,1,.91.23l.63.24a1.65,1.65,0,0,0,.68.13,1.19,1.19,0,0,0,.92-.35,1.25,1.25,0,0,0,.33-.83,1.67,1.67,0,0,0-.27-.94,1.83,1.83,0,0,0-.84-.73,9.06,9.06,0,0,0-1.08-.38,5.87,5.87,0,0,0-1.18-.23,5.08,5.08,0,0,0-1.17,0,2.87,2.87,0,0,0-1.08.36,4,4,0,0,0-1.12,1,3.83,3.83,0,0,0-.67,1.28A3.68,3.68,0,0,0,141,33.8a3.07,3.07,0,0,0,.52,1.39,3,3,0,0,0,1.1,1,9.29,9.29,0,0,0,1.38.6,9.59,9.59,0,0,0,1.06.28,1.9,1.9,0,0,1,1,.51.93.93,0,0,1,.18.43,1.24,1.24,0,0,1,0,.51.86.86,0,0,1-.27.39.79.79,0,0,1-.52.17,6.79,6.79,0,0,1-.94-.21,2.86,2.86,0,0,1-.84-.45,3.45,3.45,0,0,1-.36-.32,3.85,3.85,0,0,0-.35-.35,1.75,1.75,0,0,0-.39-.28,1,1,0,0,0-.46-.14,1.37,1.37,0,0,0-.8.12,1.24,1.24,0,0,0-.5.49,1.67,1.67,0,0,0-.2.7,2.2,2.2,0,0,0,.12.79l.07.14a7.56,7.56,0,0,0,1,1,6.5,6.5,0,0,0,1.21.8A5.28,5.28,0,0,0,144.32,41.83Z"/><path class="cls-1" d="M152,37.24a1.38,1.38,0,0,0,1.46-1.42c0-.68.05-1.35.07-2s0-1.31,0-2,0-1.37-.05-2.08-.05-1.48-.08-2.29a1.78,1.78,0,0,0-.62-.85,1.22,1.22,0,0,0-.79-.25,1.36,1.36,0,0,0-.79.34,2.05,2.05,0,0,0-.58.87l0,.14v8.06a1.35,1.35,0,0,0,.43,1.08A1.51,1.51,0,0,0,152,37.24Z"/><path class="cls-1" d="M151,41.8a1.91,1.91,0,0,0,1.2.4,1.84,1.84,0,0,0,1.15-.48,1.55,1.55,0,0,0,.47-1.3,1.89,1.89,0,0,0-.27-.93,1.63,1.63,0,0,0-1.42-.74,2.05,2.05,0,0,0-.8.2,1.8,1.8,0,0,0-.66.57,2.1,2.1,0,0,0-.33.95A1.77,1.77,0,0,0,151,41.8Z"/><path class="cls-1" d="M142.24,101.54c3.48-3.32,6.91-6.89,10.71-9.68a48,48,0,0,1,12.74-6.34c3-1.06,1.62-5.86-1.41-4.79a63.68,63.68,0,0,0-10.12,4.42,41.55,41.55,0,0,0,3.23-3.78,17.85,17.85,0,0,0,3.49-7.14c.53-2.79-.16-5.27-.84-8-.46-1.79-.89-3.6-1.24-5.42-.08-.42-.15-.85-.22-1.28v.1s0-.07,0-.11v0c0-.1,0-.29,0-.2a.77.77,0,0,0,0-.15c-.05-.39-.08-.78-.11-1.17,1,.81,2,1.64,3.06,2.44,2.55,2,6.48,4.61,9.39,1.67,1.51-1.53,1.82-3.87,2-5.92a52,52,0,0,0-.75-10.92,2.57,2.57,0,0,0-2.54-2.46,2.53,2.53,0,0,0-2.46,2.55c.34,2.36.62,4.73.75,7.11,0,.81.07,1.63.06,2.45,0,.37,0,.75,0,1.12s-.16,1.33,0,.49a12.63,12.63,0,0,1-.27,1.47l-.09.27h0c-.23-.11-.38-.18,0,.06h0c-.49-.29-1-.51-1.51-.82l-.46-.32h0l0,0-.83-.63-1.75-1.42c-2.17-1.76-5.75-4.82-8.37-2-1.31,1.42-1.21,3.7-1,5.48A71.31,71.31,0,0,0,155.58,69c.55,2.09.78,3.28.11,5.35a17.51,17.51,0,0,1-3.19,5.18c-1.76,2.09-3.71,4-5.65,5.91-.13-3.24-.32-6.47-.21-9.71.1-2.85-4.39-3.31-4.93-.55-1.61,8.2-3,16.36-3.79,24.69C137.7,102.22,140.83,102.89,142.24,101.54ZM157,57.05h0Z"/><path class="cls-1" d="M155.06,63.48l.24,0h0Z"/></g></g></svg>