<svg xmlns="http://www.w3.org/2000/svg" viewBox="0 0 169.07 89.51"><defs><style>.cls-1,.cls-2{fill:#eb5d54;}.cls-1{stroke:#eb5d54;stroke-miterlimit:10;stroke-width:0.5px;}</style></defs><g id="Слой_2" data-name="Слой 2"><g id="Слой_1-2" data-name="Слой 1"><path class="cls-1" d="M147.32,43.31h0Z"/><path class="cls-1" d="M150,44.18l.24,0h0Z"/><polygon class="cls-1" points="7.29 6.31 2.08 6.31 2.08 0.25 0.25 0.25 0.25 14.32 2.08 14.32 2.08 7.71 7.29 7.71 7.29 14.32 9.11 14.32 9.11 0.25 7.29 0.25 7.29 6.31"/><path class="cls-1" d="M20,4.19H18.3Q16.74,4,16.41,4a4.67,4.67,0,0,0-3.9,1.86,6.73,6.73,0,0,0-1.35,4.27,5.55,5.55,0,0,0,.76,3,2.8,2.8,0,0,0,2.53,1.45,3.79,3.79,0,0,0,2.23-.79,6,6,0,0,0,1.63-1.76,16.89,16.89,0,0,0,.3,2.27h1.76a9.7,9.7,0,0,1-.38-3ZM18.31,10a8.51,8.51,0,0,1-1.42,1.88,3.05,3.05,0,0,1-2,1.07,1.6,1.6,0,0,1-1.48-1.1A4.73,4.73,0,0,1,13,10a5.26,5.26,0,0,1,.88-3.08,3.21,3.21,0,0,1,2.76-1.41,6.54,6.54,0,0,1,1.68.24Z"/><polygon class="cls-1" points="21.54 4.2 24.12 8.84 21.38 14.32 23.49 14.32 26.06 9.05 23.39 4.2 21.54 4.2"/><polygon class="cls-1" points="32.4 4.2 30.55 4.2 27.88 9.05 30.44 14.32 32.56 14.32 29.82 8.84 32.4 4.2"/><polygon class="cls-1" points="26.06 4.2 26.06 9.05 26.06 14.32 27.88 14.32 27.88 9.05 27.88 4.2 26.06 4.2"/><polygon class="cls-1" points="38.14 11.42 34.89 4.2 33.04 4.2 33.04 14.32 34.53 14.32 34.53 8.13 34.48 6.89 34.53 6.89 34.95 8.13 37.16 12.92 38.92 12.92 41.09 8.13 41.49 6.89 41.53 6.89 41.49 14.32 43.18 14.32 43.18 4.2 41.38 4.2 38.14 11.42"/><polygon class="cls-1" points="46.71 11.82 46.78 10.41 46.78 4.2 45.09 4.2 45.09 14.32 46.78 14.32 51.79 6.59 51.74 14.32 53.42 14.32 53.42 4.2 51.74 4.2 46.71 11.82"/><polygon class="cls-1" points="55.62 5.6 59.48 5.6 59.48 14.32 61.31 14.32 61.31 5.6 65.17 5.6 65.17 4.2 55.62 4.2 55.62 5.6"/><path class="cls-1" d="M72,14.61a9,9,0,0,0,3.83-1V12.11a7.63,7.63,0,0,1-3.62,1.09,2.93,2.93,0,0,1-2.38-1.1A3.88,3.88,0,0,1,69,9.54h7V9.17a6.81,6.81,0,0,0-.84-3.62A3.48,3.48,0,0,0,72,3.91a4.37,4.37,0,0,0-3.5,1.63,5.58,5.58,0,0,0-1.31,3.74,5.52,5.52,0,0,0,1.3,3.7A4.4,4.4,0,0,0,72,14.61ZM69.9,6.24a2.43,2.43,0,0,1,1.95-.92,2,2,0,0,1,1.72.83A3.07,3.07,0,0,1,74.12,8v.25H69A4.23,4.23,0,0,1,69.9,6.24Z"/><polygon class="cls-1" points="7.17 30.56 2.21 30.56 2.21 26.48 0.52 26.48 0.52 36.61 2.21 36.61 2.21 31.97 7.17 31.97 7.17 36.61 8.85 36.61 8.85 26.48 7.17 26.48 7.17 30.56"/><path class="cls-1" d="M20,26.48H18.3q-1.56-.15-1.89-.15a4.67,4.67,0,0,0-3.9,1.86,6.71,6.71,0,0,0-1.35,4.27,5.51,5.51,0,0,0,.76,3,2.79,2.79,0,0,0,2.53,1.46,3.79,3.79,0,0,0,2.23-.79,6.09,6.09,0,0,0,1.63-1.76,16.89,16.89,0,0,0,.3,2.27h1.76a9.7,9.7,0,0,1-.38-3Zm-1.68,5.85a8.51,8.51,0,0,1-1.42,1.88,3,3,0,0,1-2,1.06,1.59,1.59,0,0,1-1.48-1.09A4.73,4.73,0,0,1,13,32.24a5.31,5.31,0,0,1,.88-3.09,3.22,3.22,0,0,1,2.76-1.4,6.54,6.54,0,0,1,1.68.24Z"/><path class="cls-1" d="M35.35,27.77a5.36,5.36,0,0,0-1.44,3.78,5.3,5.3,0,0,0,1.43,3.79,5,5,0,0,0,3.79,1.55,10.2,10.2,0,0,0,3.23-.57V34.7a10.4,10.4,0,0,1-3.07.64,3.25,3.25,0,0,1-2.6-1.14,4,4,0,0,1-.95-2.71,4.17,4.17,0,0,1,.89-2.71,3.14,3.14,0,0,1,2.56-1.17,7.74,7.74,0,0,1,3.17.8V26.79A10.54,10.54,0,0,0,39,26.2,4.83,4.83,0,0,0,35.35,27.77Z"/><polygon class="cls-1" points="51.63 30.56 46.66 30.56 46.66 26.48 44.97 26.48 44.97 36.61 46.66 36.61 46.66 31.97 51.63 31.97 51.63 36.61 53.3 36.61 53.3 26.48 51.63 26.48 51.63 30.56"/><path class="cls-1" d="M60.7,26.2a4.37,4.37,0,0,0-3.5,1.63,5.56,5.56,0,0,0-1.31,3.74,5.49,5.49,0,0,0,1.3,3.69,4.38,4.38,0,0,0,3.53,1.64,9,9,0,0,0,3.83-1V34.4a7.71,7.71,0,0,1-3.62,1.09,2.93,2.93,0,0,1-2.38-1.1,3.9,3.9,0,0,1-.85-2.57h7v-.36a6.81,6.81,0,0,0-.84-3.62A3.46,3.46,0,0,0,60.7,26.2Zm2.16,4.36H57.77a4.19,4.19,0,0,1,.87-2,2.43,2.43,0,0,1,2-.92,2,2,0,0,1,1.72.83,3.07,3.07,0,0,1,.55,1.87Z"/><polygon class="cls-1" points="76.86 26.48 75.01 26.48 72.34 31.34 74.9 36.61 77.02 36.61 74.28 31.13 76.86 26.48"/><polygon class="cls-1" points="70.52 26.48 70.52 31.34 70.52 36.61 72.34 36.61 72.34 31.34 72.34 26.48 70.52 26.48"/><polygon class="cls-1" points="66 26.48 68.58 31.13 65.84 36.61 67.95 36.61 70.52 31.34 67.85 26.48 66 26.48"/><polygon class="cls-1" points="80.02 34.11 80.09 32.7 80.09 26.48 78.41 26.48 78.41 36.61 80.09 36.61 85.11 28.88 85.06 36.61 86.74 36.61 86.74 26.48 85.06 26.48 80.02 34.11"/><polygon class="cls-1" points="96.2 30.56 91.24 30.56 91.24 26.48 89.55 26.48 89.55 36.61 91.24 36.61 91.24 31.97 96.2 31.97 96.2 36.61 97.88 36.61 97.88 26.48 96.2 26.48 96.2 30.56"/><polygon class="cls-1" points="109.95 26.48 107.71 26.48 102.83 31.26 107.76 36.61 110.08 36.61 105.09 31.26 109.95 26.48"/><polygon class="cls-1" points="101.14 26.48 101.14 36.61 102.83 36.61 102.83 31.26 102.83 26.48 101.14 26.48"/><polygon class="cls-1" points="113.45 34.11 113.53 32.7 113.53 26.48 111.83 26.48 111.83 36.61 113.53 36.61 118.54 28.88 118.49 36.61 120.17 36.61 120.17 26.48 118.49 26.48 113.45 34.11"/><polygon class="cls-1" points="127.77 32.6 128.21 22.54 125.95 22.54 126.37 32.6 127.77 32.6"/><path class="cls-1" d="M127.15,34.43a1.28,1.28,0,0,0-.92.38,1.3,1.3,0,0,0,.92,2.22,1.23,1.23,0,0,0,.91-.38,1.26,1.26,0,0,0,.38-.92,1.22,1.22,0,0,0-.38-.92A1.27,1.27,0,0,0,127.15,34.43Z"/><path class="cls-2" d="M138.42,88.82c3.48-3.32,6.91-6.89,10.71-9.68a48.12,48.12,0,0,1,12.73-6.34c3-1.06,1.63-5.86-1.41-4.79a63.57,63.57,0,0,0-10.11,4.42,41.55,41.55,0,0,0,3.23-3.78,17.85,17.85,0,0,0,3.49-7.14c.52-2.79-.17-5.27-.85-8-.45-1.79-.88-3.6-1.23-5.42-.08-.42-.15-.85-.23-1.28l0,.1s0-.07,0-.11v0c0-.1,0-.29,0-.2a.77.77,0,0,1,0-.15q-.07-.59-.12-1.17c1,.81,2,1.64,3.06,2.44,2.55,2,6.48,4.61,9.39,1.67,1.52-1.53,1.83-3.87,2-5.92a52.62,52.62,0,0,0-.75-10.92,2.58,2.58,0,0,0-2.55-2.46,2.51,2.51,0,0,0-2.45,2.55c.33,2.36.62,4.73.74,7.11,0,.81.07,1.63.06,2.45,0,.37,0,.75,0,1.12s-.15,1.33,0,.49a12.67,12.67,0,0,1-.28,1.47c0,.08-.06.18-.08.27h0c-.23-.11-.39-.18,0,.06h0c-.48-.29-1-.51-1.5-.82l-.47-.32h0l0,0-.82-.64c-.59-.46-1.17-.94-1.75-1.41-2.18-1.76-5.76-4.82-8.38-2-1.31,1.42-1.2,3.7-1,5.48a71.31,71.31,0,0,0,2.13,10.34c.55,2.09.78,3.28.11,5.35a17.11,17.11,0,0,1-3.19,5.18c-1.75,2.09-3.71,4-5.64,5.91-.13-3.24-.33-6.47-.22-9.71.1-2.85-4.38-3.31-4.92-.55a247.76,247.76,0,0,0-3.8,24.69C133.87,89.5,137,90.17,138.42,88.82Zm14.71-44.49h0Z"/></g></g></svg>