<svg id="adobe" xmlns="http://www.w3.org/2000/svg" viewBox="0 0 583.97 579.97"><defs><style>.cls-1{fill:#fff;}.cls-2{fill:#013d61;fill-rule:evenodd;}</style></defs><rect class="cls-1" x="18.13" y="53.8" width="552.58" height="454.38"/><path class="cls-2" d="M245.1,432.26l-18.52-16.51c-3.17-3.18-5.59-5.71-8.8-8.85-4.16-4-4.28-6.88-11.87-6.91-39.5-.08-72.49-22.83-83.23-61.31-16.17-58.2,36-120.15,103.11-102.27,21,5.55,32.31,17.46,43.61,28.8,12.17,12.21,23.74,23.85,36.14,36.24,5.14,5.11,12.43,13,25.43,9.19a21.39,21.39,0,0,0,14.82-21.47c-.57-10.81-9.72-17.27-14.4-22-6.2-6.23-11.76-12-18.07-18.14-22.64-22-42.18-48.34-88.63-56.35C140.41,178.17,71.21,247.29,77.9,328.44c3.47,42.86,30,76.35,54.95,92.63,39.65,26,79.14,23.14,126.31,21.36C257.72,440.61,247,433.43,245.1,432.26Z"/><path class="cls-2" d="M442.32,165.5c-39-28.42-98.57-37.22-147.14-16-5.1,2.23-36,17.8-38,24.38,14.43,7.1,16.1,6.5,30.38,15.91,3.14,2,5.9,4.42,9.19,6.16,5.63-2.08,11.22-5.9,17.84-8.43,47.58-18.22,101.32-1.21,128.88,38.29,54.16,77.63-4.42,177.75-93.66,174.16-32.69-1.36-55.33-15.31-72.15-31.07l-51.82-51.74c-9.37-9.53-18.4-21.54-30.08-21.7-19.05-.22-24.95,21.55-20.41,27.41,2.23,8.61,25.36,29.4,32.58,36.62,36,36.09,63.87,71.54,121.28,81,58.7,9.68,110-13.94,143.89-54.91,6.65-8.05,21.5-30.65,24.23-43.77,5.63-7.44,9.29-40.48,9.22-53.44C506.26,236.79,480.6,193.47,442.32,165.5Z"/><path class="cls-2" d="M0,0V580H584V0ZM528.83,330a175.8,175.8,0,0,1-17.35,45.88c-2.12,3.82-6.8,10.36-7.29,13.3-1.44,1.06-.38,0-2,1.82l-16.82,21.05c-46.33,45.24-81.56,57.11-149,57.11H253.83c-62,0-92.79,3.25-137.65-27.21C85,420.73,56.73,379.92,52.69,340.65c-4.84-25.25-.53-55.52,7.37-76.92a152.36,152.36,0,0,1,144.11-99.59c7.33,0,15.38,1.44,22,1.25,7.71-11,34.17-28.61,47.7-35.45C358.33,87.23,457,118.37,505.81,194.61,530.68,233.46,539.6,284.67,528.83,330Z"/></svg>