<svg id="Layer_1" data-name="Layer 1" xmlns="http://www.w3.org/2000/svg" viewBox="0 0 504.67 504.5"><defs><style>.cls-1{fill:#013d61;}.cls-2{fill:#fff;}</style></defs><rect class="cls-1" width="504.67" height="504.5"/><path class="cls-2" d="M271.12,321.78l38.57-22.33C319.84,316,333,328.2,356.38,328.2c19.62,0,32.14-9.81,32.14-23.34,0-16.24-12.86-22-34.51-31.46l-11.84-5.08c-34.17-14.55-56.84-32.81-56.84-71.38,0-35.53,27.06-62.59,69.36-62.59,30.1,0,51.76,10.49,67.32,37.89l-36.88,23.68c-8.12-14.54-16.91-20.3-30.44-20.3-13.88,0-22.67,8.8-22.67,20.3,0,14.21,8.79,20,29.09,28.76L373,229.76c40.26,17.25,62.93,34.84,62.93,74.42,0,42.63-33.49,66-78.49,66-44,0-72.4-21-86.27-48.37"/><path class="cls-2" d="M82.79,136.51h160v44.24H128.58v48.39H228.93V272.4H128.58v50.37H244.35V368H82.79Z"/></svg>