<svg id="Слой_1" data-name="Слой 1" xmlns="http://www.w3.org/2000/svg" viewBox="0 0 474.66 685.33"><defs><style>.cls-1{fill:#013d61;fill-rule:evenodd;}</style></defs><path class="cls-1" d="M210.67,53.33H132a78.67,78.67,0,0,0,0,157.34h78.67Zm0-53.33h132a132,132,0,0,1,79.56,237.33A132,132,0,0,1,264,448.68V553.33A132,132,0,1,1,52.43,448a132,132,0,0,1,0-210.67A132,132,0,0,1,132,0ZM264,53.33V210.67h78.67a78.67,78.67,0,0,0,0-157.34Zm-132,368h78.67V264H132a78.67,78.67,0,0,0-.31,157.33Zm-78.67,132a78.67,78.67,0,0,1,78.36-78.66h79v78.66a78.67,78.67,0,0,1-157.34,0ZM264,342.51a78.67,78.67,0,1,1,0,.31Z"/></svg>