<svg id="git" xmlns="http://www.w3.org/2000/svg" viewBox="0 0 126.26 126.23"><defs><style>.cls-1{fill:#013d61;}</style></defs><path class="cls-1" d="M123.88,57.49,68.77,2.38a8.14,8.14,0,0,0-11.5,0L45.83,13.83,60.35,28.34A9.65,9.65,0,0,1,72.57,40.65l14,14a9.66,9.66,0,1,1-5.79,5.45l-13-13.05V81.39a9.79,9.79,0,0,1,2.56,1.83,9.68,9.68,0,1,1-14,0,10.25,10.25,0,0,1,2.85-2.11V46.45a10.05,10.05,0,0,1-2.85-2.11,9.63,9.63,0,0,1-1.93-10.58L40.13,19.45,2.37,57.24a8.14,8.14,0,0,0,0,11.5l55.13,55.11a8.12,8.12,0,0,0,11.5,0L123.88,69a8.14,8.14,0,0,0,0-11.51Z"/></svg>