<svg id="Слой_1" data-name="Слой 1" xmlns="http://www.w3.org/2000/svg" viewBox="0 0 630 630"><defs><style>.cls-1{fill:#013d61;}.cls-2{fill:#fff;}</style></defs><rect class="cls-1" width="630" height="630"/><path class="cls-2" d="M212,497c11,17,20,31,40,31,19,0,32-8,32-37V290h59V492c0,61-36,89-88,89-47,0-75-25-89-54"/><path class="cls-2" d="M423,492c13,21,29,36,58,36,25,0,40-12,40-29,0-20-16-27-43-39l-15-6c-43-18-71-41-71-89,0-44,34-78,87-78,38,0,65,13,84,47l-46,30c-10-18-21-25-38-25s-28,11-28,25c0,18,11,25,36,36l15,6c50,22,79,44,79,93,0,53-42,82-98,82-55,0-91-26-108-60"/></svg>