<svg id="Capa_1" data-name="Capa 1" xmlns="http://www.w3.org/2000/svg" viewBox="0 0 800 572.74"><defs><style>.cls-1{fill:#fff;}.cls-2{fill:#013d61;}</style></defs><rect class="cls-1" x="19.98" y="28.25" width="756.31" height="448.73"/><g id="Layer_68" data-name="Layer 68"><path class="cls-2" d="M800,512.53V0H0V512.53H326.53v33H155.83v27.22H633.77V545.52h-167v-33ZM58.51,437.08V58.51h683V437h-683Z"/><path class="cls-2" d="M329.09,311.82H170.28l-47,2.39v32.36H433.29V311.82H329.09ZM380,333.19H282V326.7h98Z"/><polygon class="cls-2" points="194.78 110.74 472.74 110.74 472.74 118.67 497.25 118.67 497.25 86.21 170.28 86.21 170.28 301.81 433.28 301.81 433.28 277.34 194.78 277.34 194.78 110.74"/><path class="cls-2" d="M471.62,156.41h121v44.23h24.61V131.77H447V387.14h96.89v-21A8.19,8.19,0,1,1,535.7,358a8.18,8.18,0,0,1,8.19,8.18V344.81H471.61V156.41Z"/><path class="cls-2" d="M557.72,412.4H676.8V212.08H557.72Zm61-8.62a6.87,6.87,0,1,1,6.85-6.88A6.88,6.88,0,0,1,618.76,403.78Zm1.13-183.41a2.88,2.88,0,1,1-2.88,2.88A2.87,2.87,0,0,1,619.89,220.37ZM602.78,230h34.28v2.76H602.78Zm-26,12.62,80.89,0V380.19c-30.92.14-65.52.27-80.89.14Z"/></g></svg>